<?xml version="1.0" encoding="utf-8"?>
<!-- Generator: Adobe Illustrator 19.2.1, SVG Export Plug-In . SVG Version: 6.00 Build 0)  -->
<!DOCTYPE svg PUBLIC "-//W3C//DTD SVG 1.1//EN" "http://www.w3.org/Graphics/SVG/1.1/DTD/svg11.dtd">
<svg version="1.1" id="Layer_1" xmlns:figma="http://www.figma.com/figma/ns"
	 xmlns="http://www.w3.org/2000/svg" xmlns:xlink="http://www.w3.org/1999/xlink" x="0px" y="0px" viewBox="0 0 213 44.3"
	 style="enable-background:new 0 0 213 44.3;" xml:space="preserve">
<style type="text/css">
	.st0{fill:#FFFFFF;}
</style>
<title>Frame</title>
<desc>Created using Figma 0.90</desc>
<g id="Canvas" transform="translate(-1582 68)" figma:type="canvas">
	<g id="Frame" figma:type="frame">
		<g id="nomad" figma:type="text">
			<g transform="matrix(1 0 0 1 1559.5 -68)">
				<path id="path0_fill" class="st0" d="M1608.4-60.8h-0.4l-0.3-3.2l-0.5-0.3l0.5-1.8l0.3-3.2l-0.8-1.5l-3.8-1.3l-1.8-0.4l-1.8-2.1
					l0.8,1v1.8h-0.5l-0.6-1l-0.4,1l-0.3,2.5h-0.4l0.4,0.3v2.5l-0.4,2.2l0.8,1.3l-0.3,0.5h-0.8l-1-0.4v0.7l1.3,2.5l-0.6,1.3h0.3
					l0.4-0.3l1.4,1.5v0.3l-0.3,0.3h-0.4l1.8,2.5l3.2,0.7l2.5-1.1l-0.4-0.4l1-1.8v-2.8L1608.4-60.8z M1608.1-27.9l-0.3-0.4l-1.8-0.6
					l0.3-0.5l1-0.3l-0.3-0.4l-0.7-1.7h-1.1l-2.5-2.4l-1.3-0.4v-1.1l-1.8-0.7v-0.3l-0.4-1.8l-2.1-2.7l-2.2-3v-1.1l-2.8-2.5l-0.3-2
					l-2.5-1.8l0.3-1.4l-1.8-2.4l0.4-0.4v-0.3h-0.7l-1.1-0.8l0.3-0.3v-0.7l-1-0.7l-0.7-1.5l-4.6-6.3l-0.1-1l-3.5-3.8l-3.2-1.2
					l-2.1,0.8l-0.3,0.4l-1.8,0.3v1l-1.2,1.5l1.5,0.3l-1.1,1.5l0.8,1.3l-0.8,0.7l0.3,0.5l0.5,2l1,1.1l3.1,1.4l3.3,3.5l-0.3,0.3l1,1.1
					v0.7h0.7l0.4,0.4v1l2,2.1l0.1,1l1.4,0.8v1l1.5,1.4v1.1h0.6l0.7,1.4l0.1,2.5l1-0.4l1.2,0.4l0.4,1l1,1.1l1,2l0.5,0.5l1,2.8
					l1.5,0.7v1l0.6,0.3l2.5,4.3l1.1,0.4v0.3l-0.3,0.3l1.4,1.8v1.7l1.8,1.5l2.8,0.3l-0.4,0.4l2.5,0.3l1.7-1.1l1.5-2.1l-0.8-1.4
					L1608.1-27.9z M1577.9-26l-0.8-0.7V-27l0.8-0.7l-0.4-3.3l-0.4-0.3v-1l0.4-1.8l-0.7-3l-3.6-2.8l-1,1.1l-1.8,0.4l-1,2.8l-0.4,2.8
					v2.5l0.1,6.8h-0.3l1,2l2.5,0.7l0.3-0.4h2.8l1.5-0.6l0.7-4.3L1577.9-26L1577.9-26z M1657.2-69.1l-0.3-0.3l-1.7-1.5l-0.8-1.7h-1
					l-3.2,0.7l-2.1,1.5l-0.4,2.4l-0.3-0.3h-0.7l-0.8,1.4l-0.3-0.4l-1.4,2.5l0.4,0.3l-1.4,1.8l-0.3,1.5v2l0.3,3l-0.7,1.1l1.2,0.7
					l-1.2,1.1l1.2,0.7L1643-52v0.7l0.3,0.4l-1,0.6l1,4.2l0.8,0.7l-1.1,1.1l-0.4,3.5h-0.3l1.1,3.5l-1,1.1l0.7,0.7v1.8l0.3,0.4
					l-0.3,0.3l0.7,1l-0.4,0.5v1.3l0.8,2.8l0.3-0.3l3.5,4.2l2.2,0.7l0.3,1.4h5.3v-0.8l0.4-1.7h0.6v-0.6l-0.4,0.1l-0.3-0.5V-28
					l-0.7-0.4l-3.2-2l0.4-0.5v-0.3l-1.2-1l-0.3-1.8l0.7-0.7v-1.5v-3.1l-0.7-0.7l1-2.1l-1.1-0.7l0.4-0.7l-0.4-0.3v-0.5l0.4-0.3l0.4-4
					l-0.7-2.1l0.3-0.3l0.4-4.3h0.3l-0.3-3.5l1-2.8l-0.3-0.4l3.8-3.6l-0.3-0.3l0.6-1.7l-0.3-0.5L1657.2-69.1z M1682.2-45.4l-0.8-0.7
					l-0.3-6.3l0.7-1.5l-0.7-1.3l0.3-0.4v-2.2l-0.3-3.2l-1.8-3.5l0.7-0.6h-0.4l-1.4-1.4l-0.7-1.5l0.3-0.3l-0.6-0.7h-1.2l-1.3-1.3
					h-1.5l-0.7-1.2l-0.3,0.4h-0.3l-2.5-0.7l-2.2,1.1l0.4,1.7l-1,2.2l2.4,2.4l-0.3,0.4l2.1,1.1l1.2,2l0.3,0.4l0.4,1.8l1.2,1.3
					l-1.4,3.3l0.3,0.3l0.7,1.2l-0.2,8.4h-0.5v1.8l0.5,0.4v2.4l-1.1,1.8h0.4l0.3,0.4l0.7,2.1l-1,4.5l-2.5,2.2l-0.3,2.1h-1.4l-0.8,1
					l0.8,3.3h1l0.8,0.7v0.3h1l1.4,0.4l-0.3,0.3l0.6-1h1.7l1.5-0.8v-1l2-0.4l3-4.6v-4.3l0.6-1v-2.5l-0.3-4.2h0.3l-0.3-2.5l0.7-0.7
					l-0.4-0.3v-0.7L1682.2-45.4z M1737.7-52.8l-2.2-1v-1.8l-0.7-1.4l-3.6-3.8l-1-3.2l-2.5-2.1v-1l-1.8-2.2l-0.6-0.7l-2.2-3.1h-1.1
					l-1.4,1.3h-2.4l-1.7,6.6l0.6,1v2.1l5.3,4.5l1.5,2.2l2.8,3.8l-0.7,0.8l4.3,3.5l0.4-0.3l1,1l-0.4,0.3h1.5l0.7,0.4l2.5-1.8l1,0.6
					l-0.4-1l0.7-0.7L1737.7-52.8z M1756.1-48.2l-1-2.1l0.7-0.7l-0.8-8.1l0.7-8.1l-0.7-2.2l0.4-0.7l-1.5-0.3v-1l-2.1-1.8l-0.4,1
					l-2.8,1.5l-0.3-0.4l0.3-0.3l0.7-1.1l-0.7-1.2l-1,0.7l-0.5,0.5l-0.3,2l-3.5,3.6l0.8,1l-0.4,0.4h-0.4l-0.3,1.1l0.1,3.8h1l0.7,2.8
					l1.4,1.5v0.7l-0.3,2.1l0.7,0.7v1l-0.7,1.5l1.1,1l-0.3,3.9l-0.8,1.2l-0.4-0.4v0.7l0.5,0.3l0.3-0.3l0.7,0.7l-0.7,2.1l0.7,0.7
					l-0.3,1.5h-0.4l0.4,4.6l-0.7,0.7l-0.5,1.8l1.2,1.7v1.4v2.8v2.5l0.6,0.7v0.3l2.5,0.4l2.5,1.8l1-1.1l1.8-2.5l-0.3-3.2l0.7-2.5
					h-0.4l-0.8-0.6l0.4-0.4h0.8l-0.4-0.4v-1l0.7-1.4l-0.8-0.8l0.4-1.7l-0.7-0.8l0.7-2.4v-5.8l-0.4-0.3L1756.1-48.2z M1725.7-33.2
					l-1.5-2.1l0.4-2.2l-1.8-2.1l-4-0.4l-1.3,1.2l-0.7,1.1l-0.3,7.1l0.6,3.8l-0.6,0.7v1.5l1,1.7l-0.4,0.3v0.8l2.2,0.7l2.1,0.3v0.3
					l3.2-1.1v-1l0.3-2.8l0.4-1L1725.7-33.2z M1828.8-24.7l-1.2-1.4l-1.1-3.2l-0.3-4.6l-1.1-1.3v-1.6l-0.7-0.7V-40l-1.1-1v-3.9
					l-1.8-4.2v-1.8l-0.7-1.8l-0.4-2.8l-1.8-3.2l0.4-1l-1.1-2.1l-0.4-3l-1.4-2.1l0.6-2l-0.4,0.3l-3.2-2.8l-3.5-0.7l-3.1,0.7l-0.8,1.1
					l-1.7-1.8l-1.5-0.7l-0.6,1.8h-0.4v1l0.4,3.2l0.4,3.9h-0.8v0.7l1.8,2.8l2.5,1.4v0.3h1l1.1,0.4v1.8h1.8l0.7,1l0.4,3.2l1.1,1.8v1.8
					l1,1v2.5l0.8,0.6v1.5l1.3,2.8l0.5,0.4v2l1.3,3.6l1.5,3.2l-0.3,0.3h-0.4v1l1,1.8l0.8,2.2l1,3.1l0.5-0.3l1.3,1l3,0.3l1-2.4
					l1.8-0.4L1828.8-24.7z M1806-32.1l-0.7-2.1l0.4-1.5l-0.7-0.7v-2.1l-2.5-5l0.3-0.3l-1.1-1.1l-0.7-1h-2.1l-2.5,2.4h-1l-0.3,1.2
					l-0.4,2.8h-0.3v3.5l-0.7,0.7h-0.3l-0.7,3.1l-1.5,2.2l0.4,1.1l-1.4,2.1l0.7,2.2v2.1l1.4,1.5l-0.3,0.3l1.8-0.4h2.4l0.4-0.4h0.7
					l2.8-3.5v-1.4l1-2.2L1806-32.1z M1874.6-56.3l-1.1-1.2l0.6-1.4h-0.3l-0.4-2.4l0.5-0.8h0.5l-0.5-0.3l-0.1-1.8l-0.6-0.7v-0.3
					l0.9-1.2l-1.1-1.3l0.2-2.2l-2.8-1.2l-0.1-0.4l-1.7,0.5l-1.1-0.7l-1.2,0.8l0.1,1.1l-0.3,0.7l-0.3-0.4l-0.3,0.3l0.3,0.3l0.3-0.1
					l0.1,2.8l-0.9,1.1l-0.3,4.6l1.5,0.6l-0.7,0.8l-0.3,1.1l0.8,1.7l-1.1,1.5l0.4,0.3l0.1,2.2l-0.4-0.4l-0.1,0.3l0.3,0.3l0.3-0.1
					l-0.4,2.1l0.4,0.2l-1,1.2l1.1,1l-0.9,1.1l0.3,0.3l0.1,3.5l-0.4,0.1l1.2,2.2l-0.6,1.8h-0.4l0.6,1l-0.3,0.3h-0.3l0.1,1.8l0.4,2.2
					l-0.6,2.1l0.8,1.7l-0.7,0.8l0.5,1.7l0.4,0.3l-0.7,1.8l2.3,1.7l-0.4,0.4h-0.3l0.8,0.7v0.3l-0.4,0.3l-0.3,0.1l0.7,0.7v0.4l2.4-0.6
					l0.4-0.3l0.3,0.3l1.1-0.1l-0.1-0.7l0.4-0.3l0.3-1.5h0.4l0.2-1.1h1.1l-0.1-0.7l-1.3-0.6l-0.1-0.7l0.3-0.4l0.8,0.6l-0.5-0.7
					l-0.3-0.3l-0.1-1l0.3-0.4h0.4l-0.7-1.4l0.6-1.4l-0.5-2.8l0.6-1.1l-0.4-4.2l0.6-1.8l-0.4-0.3l0.6-3.3l-1.1-1.4l0.7-0.6l0.3-0.1
					l-0.8-1.4l-0.1-1.4h0.4l-0.1-1.4h-0.7l-0.4-0.4l0.4-0.4h0.3l-0.1-0.7l0.4-1.4l0.2-1.8L1874.6-56.3L1874.6-56.3z M1904.5-52.1
					l-0.1-0.7l-0.3,0.3l-1.5-1l1.4-1.8l-1.5-1.7l0.4-0.3l-0.1-3.3l-0.1-2.4l-1.1-0.7l0.3-0.3l-1.9-1.7l0.3-0.3l-3.2-3.2l0.3-0.3
					l-2.9-0.6l-1.8-1.4l-5.6-0.1l-1.2,1.1l-0.3,0.7l-0.7,0.1v0.7h0.4l0.3,0.3l-0.6,1.5l0.5,1l0.6-0.1l0.5,1.8l0.3-0.4l1.8,0.6l1.5,1
					l0.3-0.4l0.7,0.7l2.6,1.7l0.1,1l1.4,2l0.1,2.5l0.7,0.7v0.3l-0.3,0.4l-0.6,3.6l1.1,1l-0.3,0.3l-1,0.8v1h0.4l0.3,0.4l0.1,1.3
					l-0.5,3.3h-0.4l0.8,1.4l-0.2,2.4l0.6,0.7l0.1,0.4l-0.3,0.4h-0.3l0.3,0.3l-0.9,3.2l-1,0.8l0.1,1.1l-2.2,1.8l-2.1,0.1l-1.7,1.6
					l-0.4,0.3l-0.3-0.3l-0.7,0.6l-2,0.8l0.7,0.7l-0.6,2.8h0.8l0.4,1.7h1l0.4-0.3l1.1,1.3l2.8,0.3l3.2-0.9v-0.7l2.7-0.9l1.3-2.1h0.7
					l3.1-4l-0.4-0.4v-0.3l1.7-2.6l-0.6-0.7l0.2-0.3V-34l0.7-1.8l-1.1-0.5l1-1.2h0.3l-0.1-1.1l-0.3-0.3l0.7-0.7h-0.7l-0.6-2l-0.3-0.4
					l0.7-1.4l-0.1-4h0.3l-0.1-0.7l0.4-0.3l-0.7-0.7l0.3-0.4l0.6-3.2L1904.5-52.1z"/>
			</g>
		</g>
	</g>
</g>
<g>
	<path class="st0" d="M31.9,40.1l0.7,1.2l-1.3,1.7L29.8,44l-2.1-0.2l0.4-0.4l-2.3-0.2l-1.5-1.3v-1.4L23,38.9l0.2-0.2v-0.2l-0.9-0.4
		l-2.1-3.6l-0.5-0.2v-0.8l-1.3-0.6l-0.8-2.3l-0.4-0.4l-0.8-1.7l-0.8-0.9l-0.3-0.8l-1-0.4l-0.8,0.4l-0.1-2.1l-0.6-1.2h-0.5v-0.9
		l-1.3-1.2v-0.8l-1.2-0.7l-0.1-0.8l-1.7-1.7v-0.8L7.9,16H7.3v-0.6l-0.8-0.9l0.2-0.2l-2.8-2.9l-2.6-1.2L0.5,9.2L0.1,7.5l-0.2-0.4
		l0.7-0.6l-0.7-1.1l0.9-1.3l-1.3-0.2l1-1.3V1.8l1.5-0.2l0.2-0.4l1.7-0.7l2.7,1l2.9,3.2l0.1,0.8l3.8,5.3l0.6,1.3l0.8,0.6v0.6
		l-0.2,0.2l0.9,0.7h0.6v0.2l-0.4,0.4l1.5,2L17,18l2.1,1.5l0.2,1.7l2.3,2.1v0.9l1.9,2.5l1.7,2.3l0.4,1.5v0.2l1.5,0.6v0.9l1.1,0.4
		l2.1,2h0.9l0.6,1.4l0.2,0.4l-0.8,0.2L31,37l1.5,0.5l0.2,0.4L31.9,40.1z M7.4,39.4L6.8,43l-1.3,0.5H3.2l-0.2,0.4l-2.1-0.6L0,41.5
		h0.2l-0.1-5.7v-2.1l0.4-2.3L1.4,29l1.5-0.4l0.8-0.9l3,2.3l0.6,2.5L7,34.1v0.8l0.4,0.2l0.3,2.8L7,38.5v0.2l0.7,0.6H7.4z M32,11.4
		v2.3l-0.8,1.5l0.4,0.4l-2.1,0.9l-2.7-0.6l-1.5-2.1h0.4l0.2-0.2v-0.2l-1.2-1.3l-0.3,0.2h-0.2l0.5-1.1l-1.1-2.1V8.5l0.8,0.4H25
		l0.2-0.4l-0.7-1.1L25,5.5V3.4l-0.4-0.2H25l0.2-2.1l0.4-0.8L26,1.1h0.4v-1.5l-0.7-0.8l1.5,1.7l1.5,0.4L32,1.9l0.7,1.3l-0.2,2.7
		L32,7.4l0.4,0.2l0.2,2.7H33L32,11.4z"/>
	<path class="st0" d="M56.2,4.3l0.2,0.4L56,6.1l0.2,0.2l-3.2,3l0.2,0.4l-0.8,2.3l0.2,2.9h-0.2l-0.4,3.6l-0.2,0.2l0.6,1.7l-0.3,3.3
		l-0.3,0.2v0.4l0.3,0.2l-0.3,0.6l0.9,0.6l-0.8,1.7l0.6,0.6v2.6v1.3l-0.6,0.6l0.2,1.5l1,0.8v0.2l-0.4,0.4l2.7,1.7l0.6,0.4v2.6
		l0.2,0.4l0.3-0.1v0.5h-0.5l-0.4,1.4v0.7h-4.4l-0.2-1.1l-1.9-0.6l-2.9-3.5L46,38.3L45.4,36v-1.1l0.4-0.4l-0.6-0.8l0.2-0.2l-0.2-0.4
		v-1.5L44.5,31l0.8-0.9l-0.9-2.9h0.2l0.4-2.9l0.9-0.9l-0.7-0.6l-0.8-3.5l0.8-0.5l-0.2-0.4v-0.6l0.6-0.5l-1-0.6l1-0.9l-1-0.6l0.6-0.9
		l-0.2-2.5V10l0.2-1.3l1.2-1.5L46.1,7l1.2-2.1l0.2,0.4l0.7-1.2h0.6l0.2,0.2l0.4-2l1.7-1.3l2.7-0.6h0.8l0.7,1.4l1.4,1.3l0.2,0.2
		L56.2,4.3z M77.3,23.8v0.6l0.4,0.2L77,25.3l0.2,2.1H77l0.2,3.5v2.1l-0.5,0.8v3.6l-2.5,3.8l-1.7,0.4v0.8l-1.3,0.7H70l-0.5,0.8
		l0.2-0.2l-1.2-0.4h-0.8v-0.2L67,42.5h-0.8l-0.7-2.8l0.7-0.8h1.2l0.2-1.7l2.1-1.9l0.8-3.8l-0.6-1.7l-0.2-0.4h-0.3l0.9-1.5v-2
		l-0.4-0.4v-1.5h0.4l0.2-7l-0.6-1l-0.2-0.2l1.2-2.8l-1-1.1l-0.3-1.5l-0.2-0.4l-1-1.7l-1.7-0.9l0.2-0.4l-2-2l0.8-1.9l-0.4-1.4L67.2,1
		l2.1,0.6h0.2l0.2-0.4l0.6,1h1.3l1.1,1.1h1L74.2,4L74,4.2l0.6,1.3l1.1,1.2h0.4l-0.6,0.5l1.5,2.9l0.2,2.7v1.7L77,14.9l0.6,1.1
		L77,17.3l0.2,5.3l0.7,0.6L77.3,23.8z"/>
	<path class="st0" d="M107.1,20.3l-0.6,0.6l0.4,0.8l-0.8-0.5l-2.1,1.5l-0.6-0.4h-1.3l0.4-0.2l-0.8-0.8l-0.4,0.2l-3.6-2.9l0.6-0.7
		l-2.3-3.2l-1.3-1.9l-4.4-3.8V7.4l-0.5-0.8l1.4-5.5h2L94.3,0h0.9l1.9,2.6l0.5,0.6L99.1,5v0.8l2.1,1.7l0.8,2.7l3,3.2l0.6,1.2v1.5
		l1.9,0.8L107.1,20.3z M97.2,39.1l-0.4,0.8l-0.2,2.3v0.8L93.9,44v-0.2l-1.7-0.2l-1.9-0.6v-0.7l0.4-0.2l-0.8-1.4v-1.3l0.5-0.6
		l-0.5-3.2l0.2-5.9l0.6-0.9l1.1-1l3.3,0.4l1.5,1.7l-0.4,1.8l1.3,1.7L97.2,39.1z M121.9,23.5l0.4,0.2v4.8l-0.6,2l0.6,0.7l-0.4,1.4
		l0.7,0.7l-0.6,1.2v0.8l0.4,0.3h-0.7l-0.4,0.4l0.7,0.5h0.4l-0.6,2.1l0.2,2.7l-1.5,2.1l-0.8,0.9l-2.1-1.5l-2.1-0.4v-0.2l-0.5-0.6
		v-2.1v-2.3V36l-1-1.4l0.4-1.5l0.6-0.6l-0.4-3.8h0.4l0.2-1.3l-0.6-0.6l0.6-1.7l-0.6-0.6l-0.2,0.2l-0.4-0.2v-0.6l0.4,0.4l0.7-1
		l0.2-3.2l-0.9-0.8l0.6-1.3V17l-0.6-0.6l0.2-1.7v-0.6l-1.1-1.3l-0.6-2.3h-0.8l-0.1-3.2l0.2-0.9h0.3l0.4-0.4l-0.7-0.8l2.9-3l0.2-1.7
		l0.4-0.4l0.8-0.6l0.6,1l-0.6,0.9l-0.2,0.2l0.2,0.4l2.3-1.3l0.4-0.8l1.7,1.5v0.8l1.3,0.2l-0.4,0.6l0.6,1.9l-0.6,6.8l0.7,6.8
		l-0.6,0.6l0.8,1.7L121.9,23.5z"/>
	<path class="st0" d="M143.5,37.2l-0.8,1.9v1.1l-2.3,2.9h-0.6l-0.3,0.4h-2l-1.5,0.3l0.2-0.2l-1.1-1.3v-1.7l-0.6-1.8l1.2-1.7
		l-0.4-0.9l1.3-1.9l0.6-2.6h0.2l0.6-0.6v-2.9h0.2l0.4-2.3l0.2-1h0.8l2.1-2h1.7l0.6,0.8l0.9,0.9l-0.2,0.2l2.1,4.1v1.7l0.6,0.6
		l-0.4,1.3l0.6,1.7L143.5,37.2z M166.1,41.6l-1.5,0.4l-0.8,2l-2.5-0.2l-1.1-0.8l-0.4,0.2l-0.8-2.6l-0.7-1.9l-0.8-1.5v-0.8h0.4
		l0.2-0.2l-1.3-2.7l-1.1-3v-1.7l-0.4-0.4l-1.1-2.3v-1.3l-0.7-0.5v-2.1l-0.8-0.8v-1.5l-0.9-1.5l-0.4-2.7l-0.6-0.8h-1.5v-1.5l-0.9-0.4
		h-0.8v-0.2l-2.1-1.2L144,9.1V8.5h0.7l-0.3-3.2L144,2.6V1.7h0.4l0.5-1.5l1.3,0.6l1.4,1.5l0.7-0.9l2.6-0.6l2.9,0.6l2.7,2.3l0.3-0.2
		l-0.5,1.7l1.1,1.7l0.4,2.5l0.9,1.7l-0.4,0.8l1.5,2.7l0.4,2.3l0.6,1.5V20l1.5,3.5v3.2l0.9,0.8v2.1l0.6,0.6v1.3l0.9,1.1l0.2,3.8
		l0.9,2.7l1,1.2L166.1,41.6z"/>
	<path class="st0" d="M187.6,14.1l-0.2,1.5l-0.4,1.1l0.1,0.6h-0.2l-0.4,0.3l0.4,0.3h0.6l0.1,1.1h-0.4l0.1,1.2l0.7,1.2l-0.2,0.1
		L187,22l0.9,1.2l-0.5,2.8l0.4,0.2l-0.5,1.5l0.4,3.5l-0.5,0.9l0.4,2.3l-0.5,1.2l0.6,1.1h-0.4l-0.2,0.4L187,38l0.2,0.2l0.4,0.6
		l-0.7-0.5l-0.2,0.4l0.1,0.6l1.1,0.5l0.1,0.6H187l-0.2,0.9h-0.4l-0.2,1.3l-0.4,0.2l0.1,0.6l-0.9,0.1l-0.2-0.2l-0.4,0.2l-2,0.5v-0.4
		l-0.6-0.6l0.2-0.1l0.4-0.2v-0.2l-0.7-0.6h0.2l0.4-0.4l-1.9-1.4l0.6-1.5l-0.3-0.2l-0.4-1.4l0.6-0.7l-0.7-1.4l0.5-1.7l-0.3-1.9
		l-0.1-1.5h0.2l0.2-0.2l-0.5-0.8h0.3l0.5-1.5l-1-1.8l0.3-0.1l-0.1-2.9l-0.2-0.2l0.8-0.9l-0.9-0.8l0.8-1l-0.4-0.2l0.3-1.7l-0.2,0.1
		l-0.2-0.2l0.1-0.2l0.4,0.4l-0.1-1.9l-0.4-0.2l0.9-1.3l-0.7-1.4l0.2-0.9l0.6-0.7l-1.3-0.5l0.2-3.8l0.8-0.9l-0.1-2.3L181,3.5
		l-0.2-0.2L181,3l0.2,0.4l0.2-0.6l-0.1-0.9l1-0.7l0.9,0.6l1.4-0.4l0.1,0.4l2.3,1L187,4.6l0.9,1.1l-0.8,1V7l0.5,0.6l0.1,1.5l0.4,0.2
		h-0.4l-0.4,0.7l0.3,2h0.2l-0.5,1.1l0.9,1H187.6z M212.8,17.3l-0.5,2.7l-0.2,0.3l0.6,0.6l-0.4,0.2l0.1,0.6h-0.2l0.1,3.4l-0.6,1.1
		l0.2,0.4l0.5,1.7h0.6l-0.6,0.6l0.2,0.2l0.1,0.9h-0.2l-0.8,1l0.9,0.4l-0.6,1.5v0.4l-0.2,0.2l0.5,0.6l-1.4,2.2v0.2l0.4,0.4l-2.6,3.3
		H208l-1.1,1.7l-2.3,0.7v0.6L202,44l-2.3-0.2l-0.9-1.1l-0.4,0.2h-0.8l-0.3-1.4h-0.7l0.5-2.3l-0.6-0.6l1.7-0.7l0.6-0.5l0.2,0.2
		l0.4-0.2l1.4-1.3l1.7-0.1l1.8-1.5l-0.1-0.9l0.8-0.7l0.8-2.7l-0.2-0.2h0.2l0.2-0.3l-0.1-0.4l-0.5-0.6l0.2-2l-0.7-1.2h0.4l0.4-2.8
		l-0.1-1.1l-0.2-0.4h-0.3v-0.8l0.8-0.7l0.2-0.2l-0.9-0.8l0.5-3l0.2-0.4v-0.2l-0.6-0.6l-0.1-2.1l-1.1-1.7l-0.1-0.8l-2.2-1.4l-0.6-0.6
		l-0.2,0.3L200,7.4l-1.5-0.5l-0.2,0.4l-0.4-1.5l-0.5,0.1L197,4.9l0.5-1.3l-0.2-0.2h-0.4V2.8l0.6-0.1l0.2-0.6l1-0.9l4.7,0.1l1.5,1.2
		l2.4,0.5l-0.2,0.2l2.6,2.6l-0.2,0.2l1.6,1.4l-0.2,0.2l0.9,0.6l0.1,2l0.1,2.8l-0.4,0.2l1.3,1.4l-1.2,1.5L212.8,17.3l0.2-0.2l0.1,0.6
		L212.8,17.3z"/>
</g>
</svg>
