<?xml version="1.0" encoding="utf-8"?>
<!-- Generator: Adobe Illustrator 19.2.1, SVG Export Plug-In . SVG Version: 6.00 Build 0)  -->
<!DOCTYPE svg PUBLIC "-//W3C//DTD SVG 1.1//EN" "http://www.w3.org/Graphics/SVG/1.1/DTD/svg11.dtd">
<svg version="1.1" id="Layer_1" xmlns="http://www.w3.org/2000/svg" xmlns:xlink="http://www.w3.org/1999/xlink" x="0px" y="0px"
	 viewBox="0 0 50 50" style="enable-background:new 0 0 50 50;" xml:space="preserve">
<style type="text/css">
	.st0{fill:#E6E6E6;}
</style>
<path class="st0" d="M37.8,14.8c0.3,5.2-2.2,8.9-2.2,8.9c0.3-4-1.3-9.6-1.3-9.6c-1.4-0.3-3.6,0-3.6,0c0.3,4.3-1.9,8.1-3.5,9.5
	c0.8-4.8-0.5-8.4-0.5-8.4c-2.2-0.6-5.3-0.2-5.3-0.2c0.7,5.1-2.1,8.9-2.1,8.9c0.5-3.6-1.4-8.1-1.4-8.1c-1.6-0.1-4.2,0.4-4.2,0.4
	c1.4,2.4,0.3,7.7,0.3,7.7c-0.7-4.4-3.2-6.9-3.2-6.9C-3.5,23,0.2,31.4,7.2,33.9c6.6,2.3,27.7,3.5,37.2-0.6
	C53.9,29.2,47.2,17.6,37.8,14.8z"/>
</svg>
