<?xml version="1.0" encoding="utf-8"?>
<!-- Generator: Adobe Illustrator 19.2.1, SVG Export Plug-In . SVG Version: 6.00 Build 0)  -->
<!DOCTYPE svg PUBLIC "-//W3C//DTD SVG 1.1//EN" "http://www.w3.org/Graphics/SVG/1.1/DTD/svg11.dtd">
<svg version="1.1" id="Layer_1" xmlns="http://www.w3.org/2000/svg" xmlns:xlink="http://www.w3.org/1999/xlink" x="0px" y="0px"
	 viewBox="0 0 50 50" style="enable-background:new 0 0 50 50;" xml:space="preserve">
<style type="text/css">
	.st0{fill:#E6E6E6;}
</style>
<path class="st0" d="M41.2,25h-32c-0.9,0-1.7-0.8-1.7-1.7c0-0.2,0-0.3,0.1-0.5l1.7-11.9C9.3,10.2,10,10,10.9,10h28.6
	c0.8,0,1.5,0.1,1.7,0.9L42.8,23c0,0.1,0.1,0.2,0.1,0.4C42.9,24.3,42.1,25,41.2,25z M39.9,38.3c-1.8,0-3.3-1.4-3.3-3.2
	c0-1.8,1.5-3.2,3.3-3.2c1.8,0,3.3,1.4,3.3,3.2C43.1,36.9,41.7,38.3,39.9,38.3z M10.4,38.3c-1.8,0-3.3-1.4-3.3-3.2
	c0-1.8,1.5-3.2,3.3-3.2c1.8,0,3.3,1.4,3.3,3.2C13.6,36.9,12.2,38.3,10.4,38.3z M16,3h20v3H16C14,6,14,3,16,3z M44.2,7.6
	c-0.6-2.8-2.3-3.9-5.1-5.1C36.4,1.4,29.9,0,25.1,0C20.2,0,13.7,1.4,11,2.5c-2.8,1.1-4.5,2.3-5,5.1L4,23.2V45h3v2c0,4,5,4,5,0v-2h25
	v2c0,4,6,4,6,0v-2h3V23.2L44.2,7.6z"/>
</svg>
