<?xml version="1.0" encoding="utf-8"?>
<!-- Generator: Adobe Illustrator 19.2.1, SVG Export Plug-In . SVG Version: 6.00 Build 0)  -->
<!DOCTYPE svg PUBLIC "-//W3C//DTD SVG 1.1//EN" "http://www.w3.org/Graphics/SVG/1.1/DTD/svg11.dtd">
<svg version="1.1" id="Layer_1" xmlns="http://www.w3.org/2000/svg" xmlns:xlink="http://www.w3.org/1999/xlink" x="0px" y="0px"
	 viewBox="0 0 50 50" style="enable-background:new 0 0 50 50;" xml:space="preserve">
<style type="text/css">
	.st0{fill:#E6E6E6;}
</style>
<path class="st0" d="M43.4,21.7h-0.6L36.4,10c-0.3-0.5-1-0.9-1.6-0.9H15.2c-0.6,0-1.3,0.4-1.6,0.9L7.2,21.7H6.6
	c-1.2,0-2.1,0.9-2.1,2.1v10.5c0,1.2,0.9,2.1,2.1,2.1h2.1v3.2c0,1.7,1.4,3.2,3.2,3.2h1.1c1.7,0,3.2-1.4,3.2-3.2v-3.2h17.9v3.2
	c0,1.7,1.4,3.2,3.2,3.2h1.1c1.7,0,3.2-1.4,3.2-3.2v-3.2h2.1c1.2,0,2.1-0.9,2.1-2.1V23.8C45.5,22.7,44.6,21.7,43.4,21.7z M10.3,30.1
	c-1.5,0-2.6-1.2-2.6-2.6c0-1.5,1.2-2.6,2.6-2.6s2.6,1.2,2.6,2.6C12.9,29,11.7,30.1,10.3,30.1z M12.4,21.7l4.3-8.5
	c0.3-0.5,0.9-0.9,1.5-0.9h13.7c0.6,0,1.3,0.4,1.5,0.9l4.3,8.5H12.4z M39.7,30.1c-1.5,0-2.6-1.2-2.6-2.6c0-1.5,1.2-2.6,2.6-2.6
	c1.5,0,2.6,1.2,2.6,2.6C42.3,29,41.2,30.1,39.7,30.1z"/>
</svg>
