<?xml version="1.0" encoding="utf-8"?>
<!-- Generator: Adobe Illustrator 19.2.1, SVG Export Plug-In . SVG Version: 6.00 Build 0)  -->
<!DOCTYPE svg PUBLIC "-//W3C//DTD SVG 1.1//EN" "http://www.w3.org/Graphics/SVG/1.1/DTD/svg11.dtd">
<svg version="1.1" id="Layer_1" xmlns="http://www.w3.org/2000/svg" xmlns:xlink="http://www.w3.org/1999/xlink" x="0px" y="0px"
	 viewBox="0 0 50 50" style="enable-background:new 0 0 50 50;" xml:space="preserve">
<style type="text/css">
	.st0{fill:#E6E6E6;}
</style>
<path class="st0" d="M47,9H32c0,0-1,8,1,16c0.8,1.3,2.8,2.1,5,2.2V37h-0.3L34,40h11l-3.6-3H41v-9.8c2.1-0.3,4.1-1,5-2.2
	C48,18,47,9,47,9z M46,15H33v-5h13V15z M21.5,37H16v-8.5L27,12H1l11,16.5V37H6.5C5.7,37,5,37.7,5,38.5S5.7,40,6.5,40h15
	c0.8,0,1.5-0.7,1.5-1.5S22.3,37,21.5,37z"/>
</svg>
