<?xml version="1.0" encoding="utf-8"?>
<!-- Generator: Adobe Illustrator 19.2.1, SVG Export Plug-In . SVG Version: 6.00 Build 0)  -->
<!DOCTYPE svg PUBLIC "-//W3C//DTD SVG 1.1//EN" "http://www.w3.org/Graphics/SVG/1.1/DTD/svg11.dtd">
<svg version="1.1" id="Layer_1" xmlns="http://www.w3.org/2000/svg" xmlns:xlink="http://www.w3.org/1999/xlink" x="0px" y="0px"
	 viewBox="0 0 50 50" style="enable-background:new 0 0 50 50;" xml:space="preserve">
<style type="text/css">
	.st0{fill:#E6E6E6;}
</style>
<path class="st0" d="M43.3,13.9L25,1l-4.1,2.9l0.1,0L4.8,15.4L1,18v6.1l3.8-2.6V49h40.3V21.3l3.8,2.8V18C49,18,43.3,13.9,43.3,13.9z
	 M39.4,43.2H10V17.9L25,7l14.4,10.4V43.2z M18.2,20.8c1.1,0,2-0.9,2-2c0-1.1-0.9-2-2-2c-1.1,0-2,0.9-2,2
	C16.3,19.9,17.1,20.8,18.2,20.8z M15.6,40c0,0.6,0.4,1.2,1,1.2c0.6,0,1-0.4,1-1.1v-9.3h1.3v9.3c0,0.6,0.4,1.1,1,1.1
	c0.6,0,1-0.6,1-1.3l0-16.3h1.2v6.5c0,0.6,1.3,0.6,1.3,0v-6.4c0-1.3-1-2.6-2.6-2.6l-5.2,0c-1.4,0-2.5,1.2-2.5,2.6v6.4
	c0,0.6,1.3,0.6,1.3,0v-6.5h1.1C15.6,23.7,15.6,40,15.6,40z M32.1,20.8c1.1,0,2-0.9,2-2c0-1.1-0.9-2-2-2c-1.1,0-2,0.9-2,2
	C30.2,19.9,31.1,20.8,32.1,20.8z M29.5,40c0,0.6,0.5,1.2,1.1,1.2c0.6,0,1.1-0.4,1.1-1.1v-9.3h0.6v9.3c0,0.6,0.6,1.1,1.2,1.1
	s1.2-0.6,1.2-1.3l0.1-16.3h0.8v6.5c0,0.6,1.9,0.6,1.9,0v-6.4c0-1.3-1.1-2.6-2.6-2.6l-5.2,0c-1.4,0-2.4,1.2-2.4,2.6v6.4
	c0,0.6,1.3,0.6,1.3,0v-6.5h1C29.5,23.7,29.5,40,29.5,40z"/>
</svg>
