<?xml version="1.0" encoding="utf-8"?>
<!-- Generator: Adobe Illustrator 19.2.1, SVG Export Plug-In . SVG Version: 6.00 Build 0)  -->
<!DOCTYPE svg PUBLIC "-//W3C//DTD SVG 1.1//EN" "http://www.w3.org/Graphics/SVG/1.1/DTD/svg11.dtd">
<svg version="1.1" id="Layer_1" xmlns="http://www.w3.org/2000/svg" xmlns:xlink="http://www.w3.org/1999/xlink" x="0px" y="0px"
	 viewBox="0 0 50 50" style="enable-background:new 0 0 50 50;" xml:space="preserve">
<style type="text/css">
	.st0{fill:#E6E6E6;}
</style>
<path class="st0" d="M25.6,8.9c2.3,0.2,4.3-1.5,4.5-3.6c0.2-2.2-1.5-4.1-3.8-4.3c-2.3-0.2-4.3,1.5-4.5,3.7
	C21.6,6.9,23.3,8.8,25.6,8.9z M42.8,41l-1.4-12h-2.3c0-1,0-1.1-0.1-1.7c-0.1-0.6-0.3-1.1-0.6-1.2c0.3-0.3,0.4-0.6,0.5-1
	c0.1-0.6-0.2-1.2-0.7-1.6l-5.7-3.8l-4.2-7.9c-0.7-1-1.9-1.9-3.3-2c-1.1-0.1-2.1,0.3-2.9,0.8L13.7,17c-0.3,0.2-0.5,0.5-0.6,0.9
	l-2,7.9L11,26v0h0c-0.3,0-0.6,0.3-0.7,0.7c-0.1,0.4-0.2,0.9-0.2,1.4V29H7.8L6.4,41H12l-2.5,3.9c-0.2,0.3-0.3,0.7-0.4,1.2
	c-0.1,1.5,1,2.8,2.6,2.9c1.1,0.1,2.1-0.5,2.6-1.3l4.1-6.7h0.5l-0.1-0.7l1.2-1.9c0.1-0.2,0.5-0.9,0.6-1.1l1.4-6.1l6,6.3l1.9,9.4
	c0.3,1.1,1.3,2,2.5,2.1c1.6,0.1,2.9-1,3-2.5l0-0.5l-1-5C34.7,41,42.8,41,42.8,41z M11,28c0.1-0.5,0.2-0.7,0.5-0.7l0.1,0
	c0.3,0.4,0.8,0.6,1.3,0.7c0.6,0,1.2-0.2,1.6-0.6c0.1,0.1,0.2,0.2,0.2,0.3c0.1,0.3,0.1,0.6,0.1,0.9c0,0.2,0,0.5,0,0.5h-3.9
	C10.9,29,10.9,28.4,11,28z M16.7,29h-1.2c0-1,0-1.1,0-1.7c-0.1-0.5-0.2-0.9-0.4-1.1l1.5-6.4l2.9-2.3L16.7,29z M38.4,29h-3.9
	c0,0,0-0.6,0-1c0.1-0.5,0.2-0.7,0.5-0.7c0.4,0,0.9,0,1.2,0c0.4,0,0.9,0,1.5,0c0.2,0,0.4,0.1,0.5,0.4c0.1,0.3,0.1,0.6,0.1,0.9
	C38.5,28.5,38.4,29,38.4,29z M25.9,26.7l1.9-7.9l1.6,3c0.1,0.2,0.3,0.4,0.5,0.5l5.6,3.7h-0.9c-0.3,0-0.4,0.3-0.6,0.7
	C34,27.1,34,27.7,34,28.1V29h-2.5l-0.4,3.5C31.1,32.5,25.9,26.7,25.9,26.7z"/>
</svg>
