<?xml version="1.0" encoding="utf-8"?>
<!-- Generator: Adobe Illustrator 19.2.1, SVG Export Plug-In . SVG Version: 6.00 Build 0)  -->
<!DOCTYPE svg PUBLIC "-//W3C//DTD SVG 1.1//EN" "http://www.w3.org/Graphics/SVG/1.1/DTD/svg11.dtd">
<svg version="1.1" id="Layer_1" xmlns="http://www.w3.org/2000/svg" xmlns:xlink="http://www.w3.org/1999/xlink" x="0px" y="0px"
	 viewBox="0 0 107.2 84.7" style="enable-background:new 0 0 107.2 84.7;" xml:space="preserve">
<style type="text/css">
	.st0{fill:#E6E6E6;}
</style>
<path class="st0" d="M55.7,17.1c-16.1,0-32.2,0-48.2,0.1c-2.4,0-3.2-0.6-3.1-3.1c0.2-4,0.1-8,0-12C4.4,0.6,5,0,6.5,0
	c0.7,0,1.3,0,2,0C40,0,71.6,0,103.2,0c4,0,4,0,4,4c0,3.5-0.1,7,0,10.5c0.1,2.1-0.7,2.7-2.7,2.7C88.2,17.1,72,17.1,55.7,17.1z"/>
<path class="st0" d="M72.2,48.4c-10.6,0-21.1-0.1-31.7,0c-2.4,0-3.2-0.6-3.1-3.1c0.2-3.7,0.2-7.5,0-11.2c-0.1-2.2,0.6-2.9,2.8-2.9
	c11.4,0.1,22.8,0,34.2,0c9.9,0,19.8,0.1,29.7,0c2.3,0,3.1,0.6,3.1,2.9c-0.1,3.8-0.1,7.7,0,11.5c0.1,2.1-0.7,2.8-2.8,2.7
	C93.7,48.4,83,48.4,72.2,48.4z"/>
<path class="st0" d="M82.3,64.3c7.4,0,14.8,0.1,22.2,0c2.1,0,2.7,0.7,2.6,2.7c-0.1,4.1-0.1,8.2,0,12.2c0,1.6-0.5,2.2-2.1,2.2
	c-15.1,0-30.3,0-45.4,0c-1.7,0-2.3-0.6-2.3-2.4c0.1-4.2,0.1-8.3,0-12.5c0-1.7,0.6-2.3,2.3-2.3C67.2,64.4,74.8,64.3,82.3,64.3z"/>
<path class="st0" d="M29.4,59.3c-5,8.7-9.7,16.8-14.7,25.4C9.7,76.1,5.1,68,0,59.3c3.4,0,6-0.1,8.7,0c1.9,0.1,2.6-0.5,2.6-2.5
	c-0.1-7.6,0-15.2-0.1-22.7c0-2.2,0.5-2.9,2.8-2.8c4.8,0.2,4.2-0.3,4.2,4.1c0,7.2,0.1,14.3,0,21.5c0,1.8,0.5,2.6,2.4,2.5
	C23.2,59.2,26,59.3,29.4,59.3z"/>
</svg>
