<?xml version="1.0" encoding="utf-8"?>
<!-- Generator: Adobe Illustrator 19.2.1, SVG Export Plug-In . SVG Version: 6.00 Build 0)  -->
<!DOCTYPE svg PUBLIC "-//W3C//DTD SVG 1.1//EN" "http://www.w3.org/Graphics/SVG/1.1/DTD/svg11.dtd">
<svg version="1.1" id="Layer_1" xmlns="http://www.w3.org/2000/svg" xmlns:xlink="http://www.w3.org/1999/xlink" x="0px" y="0px"
	 viewBox="0 0 50 50" style="enable-background:new 0 0 50 50;" xml:space="preserve">
<style type="text/css">
	.st0{fill:#E6E6E6;}
</style>
<path class="st0" d="M34.4,17.6c3.5,0,6.3-2.8,6.3-6.3c0-3.5-2.8-6.3-6.3-6.3c-3.5,0-6.4,2.8-6.4,6.3C28.1,14.8,30.9,17.6,34.4,17.6
	z M49,32.9v-7.9l-8.6-4.8c-1.5-0.7-3.1-1-4.7-0.6c-0.7,0.1-1.3,0.4-2,0.8c-0.1,0-2.6,1.1-4.1,4.5l-5.9,11.7c0,0-5.8,1.1-8.2,1.6
	l-0.6,0.4l-1.5-5.4c-0.6-2.2,1.7-5.4,1.8-5.5c1.5-2.2,2-5.2,1.2-8.1c-0.7-2.6-2.4-4.8-4.6-6.1c-1.7-1-3.6-1.2-5.4-0.7
	C5.1,13,3.9,13.8,2.9,15L2.2,16c-1.3,2.2-1.5,4.9-0.8,7.6c0.7,2.6,2.4,4.9,4.6,6.1l0.5,0.3c0.1,0,3.7,1.5,4.3,3.6
	c0,0,0.9,3.4,1.7,6.2L11.9,40l0.1,0.1c-0.2,0.3-0.5,0.9-0.5,1.5c0,0.2,0,0.4,0.1,0.6c0.3,1.7,2,2.9,3.8,2.5l11.1-2.1
	c0,0,0.9-0.3,1.4-0.6c0.5-0.4,0.9-1.1,0.9-1.1l2.9-5.8c0,0,2,9.4,2.1,9.6L33.4,45h15.2l-0.4-2.2c0,0-0.5-2.1-0.5-2.1
	c0,0-1.3-5.9-2.3-10.5c1.6,0.9,3.1,1.7,3.1,1.8C48.6,32,49,32.9,49,32.9z M10.7,28c-1.1,0.3-2.3,0.1-3.5-0.5
	c-1.6-0.9-2.9-2.6-3.4-4.6c-0.6-2-0.4-4.1,0.6-5.7l0.5-0.7c0.6-0.7,1.3-1.2,2.2-1.5c2.8-0.8,5.9,1.5,6.9,5.1
	C15,23.7,13.5,27.3,10.7,28z"/>
</svg>
