<svg width="375" height="667" viewBox="0 0 375 667" version="2.0" xmlns="http://www.w3.org/2000/svg" xmlns:xlink="http://www.w3.org/1999/xlink" xmlns:figma="http://www.figma.com/figma/ns">
<title>Toggle Interests</title>
<desc>Created using Figma 0.90</desc>
<g id="Canvas" transform="translate(-2327 97)" figma:type="canvas">
<mask id="mask0_outline" mask-type="alpha">
<path d="M 2327 -97L 2702 -97L 2702 570L 2327 570L 2327 -97Z" fill="#FFFFFF"/>
</mask>
<g id="Toggle Interests" style="mix-blend-mode:normal;" mask="url(#mask0_outline)" figma:type="frame">
<g id="Rectangle" style="mix-blend-mode:normal;" figma:type="rounded-rectangle">
<use xlink:href="#path0_fill" transform="translate(2327 -97)" fill="#7B5F80" style="mix-blend-mode:normal;"/>
</g>
<g id="Group" style="mix-blend-mode:normal;" figma:type="group">
<g id="Polygon" style="mix-blend-mode:normal;" figma:type="regular-polygon">
<use xlink:href="#path1_fill" transform="matrix(-1.83697e-16 -1 1 -1.83697e-16 2359 -63.5)" fill="#FFFFFF" style="mix-blend-mode:normal;"/>
</g>
<g id="Polygon" style="mix-blend-mode:normal;" figma:type="regular-polygon">
<use xlink:href="#path1_fill" transform="matrix(-1.83697e-16 -1 1 -1.83697e-16 2365 -63.5)" fill="#7B5F80" style="mix-blend-mode:normal;"/>
</g>
</g>
<g id="Line" style="mix-blend-mode:normal;" figma:type="line">
<use xlink:href="#path2_stroke" transform="translate(2356 -24)" fill="#FFFFFF" style="mix-blend-mode:normal;"/>
</g>
<g id="Location Place" style="mix-blend-mode:normal;" figma:type="text">
<use xlink:href="#path3_fill" transform="translate(2359 -46)" fill="#FFFFFF" style="mix-blend-mode:normal;"/>
</g>
<g id="Line" style="mix-blend-mode:normal;" figma:type="line">
<use xlink:href="#path4_stroke" transform="translate(2356 20.7389)" fill="#FFFFFF" style="mix-blend-mode:normal;"/>
</g>
<g id="3 h 40 min" style="mix-blend-mode:normal;" figma:type="text">
<use xlink:href="#path5_fill" transform="translate(2359 -1.49997)" fill="#FFFFFF" style="mix-blend-mode:normal;"/>
</g>
<g id="Rectangle 3" style="mix-blend-mode:normal;" figma:type="rounded-rectangle">
<use xlink:href="#path6_fill" transform="translate(2633.5 18)" fill="#E6E6E6" style="mix-blend-mode:normal;"/>
</g>
<g id="Rectangle 3" style="mix-blend-mode:normal;" figma:type="rounded-rectangle">
<use xlink:href="#path7_fill" transform="translate(2633 8.00003)" fill="#E6E6E6" style="mix-blend-mode:normal;"/>
</g>
<g id="Rectangle 3" style="mix-blend-mode:normal;" figma:type="rounded-rectangle">
<use xlink:href="#path8_fill" transform="translate(2633 -1.49997)" fill="#E6E6E6" style="mix-blend-mode:normal;"/>
</g>
<g id="nomad" style="mix-blend-mode:normal;" figma:type="text">
<use xlink:href="#path9_fill" transform="translate(2469 -89)" fill="#FFFFFF" style="mix-blend-mode:normal;"/>
</g>
<g id="Line 2" style="mix-blend-mode:normal;" figma:type="line">
<use xlink:href="#path10_stroke" transform="matrix(6.12323e-17 1 -1 6.12323e-17 2660 13)" fill="#E6E6E6" style="mix-blend-mode:normal;"/>
</g>
<g id="Polygon" style="mix-blend-mode:normal;" figma:type="regular-polygon">
<use xlink:href="#path11_fill" transform="matrix(1 -2.44929e-16 2.44929e-16 1 2656 8.00003)" fill="#DADADA" style="mix-blend-mode:normal;"/>
</g>
<g id="CLICK TO DEFINE YOUR INTERESTS" style="mix-blend-mode:normal;" figma:type="text">
<use xlink:href="#path12_fill" transform="translate(2356 95.5)" fill="#FFFFFF" style="mix-blend-mode:normal;"/>
</g>
<g id="AMUSEMENT PARK" style="mix-blend-mode:normal;" figma:type="text">
<use xlink:href="#path13_fill" transform="translate(2355.5 241)" fill="#E6E6E6" style="mix-blend-mode:normal;"/>
</g>
<g id="ART" style="mix-blend-mode:normal;" figma:type="text">
<use xlink:href="#path14_fill" transform="translate(2504.5 241)" fill="#E6E6E6" style="mix-blend-mode:normal;"/>
</g>
<g id="CAFE" style="mix-blend-mode:normal;" figma:type="text">
<use xlink:href="#path15_fill" transform="translate(2612.5 241)" fill="#E6E6E6" style="mix-blend-mode:normal;"/>
</g>
<g id="CAMPING" style="mix-blend-mode:normal;" figma:type="text">
<use xlink:href="#path16_fill" transform="translate(2367.5 369.25)" fill="#E6E6E6" style="mix-blend-mode:normal;"/>
</g>
<g id="FOOD" style="mix-blend-mode:normal;" figma:type="text">
<use xlink:href="#path17_fill" transform="translate(2498.5 369.25)" fill="#E6E6E6" style="mix-blend-mode:normal;"/>
</g>
<g id="MONUMENT" style="mix-blend-mode:normal;" figma:type="text">
<use xlink:href="#path18_fill" transform="translate(2591.5 369.25)" fill="#E6E6E6" style="mix-blend-mode:normal;"/>
</g>
<g id="MUSEUM" style="mix-blend-mode:normal;" figma:type="text">
<use xlink:href="#path19_fill" transform="translate(2369.5 510.422)" fill="#E6E6E6" style="mix-blend-mode:normal;"/>
</g>
<g id="RELIGION INSTITUTIONS" style="mix-blend-mode:normal;" figma:type="text">
<use xlink:href="#path20_fill" transform="translate(2469.5 510.422)" fill="#E6E6E6" style="mix-blend-mode:normal;"/>
</g>
<g id="SHOPPING" style="mix-blend-mode:normal;" figma:type="text">
<use xlink:href="#path21_fill" transform="translate(2594.5 510.422)" fill="#E6E6E6" style="mix-blend-mode:normal;"/>
</g>
<g id="cafe" style="mix-blend-mode:normal;" figma:type="group">
<g id="Vector" style="mix-blend-mode:normal;" figma:type="vector">
<use xlink:href="#path22_fill" transform="translate(2608 182)" fill="#E6E6E6" style="mix-blend-mode:normal;"/>
</g>
</g>
<g id="amusement-park" style="mix-blend-mode:normal;" figma:type="group">
<g id="Vector" style="mix-blend-mode:normal;" figma:type="vector">
<use xlink:href="#path23_fill" transform="matrix(1 0 0 1 2374.5 178)" fill="#E6E6E6" style="mix-blend-mode:normal;"/>
</g>
</g>
<g id="art-gallery" style="mix-blend-mode:normal;" figma:type="group">
<g id="Vector" style="mix-blend-mode:normal;" figma:type="vector">
<use xlink:href="#path24_fill" transform="translate(2490.5 181.002)" fill="#E6E6E6" style="mix-blend-mode:normal;"/>
</g>
</g>
<g id="campground" style="mix-blend-mode:normal;" figma:type="group">
<g id="Vector" style="mix-blend-mode:normal;" figma:type="vector">
<use xlink:href="#path25_fill" transform="matrix(1 0 0 1 2377.5 311.261)" fill="#E6E6E6" style="mix-blend-mode:normal;"/>
</g>
</g>
<g id="church" style="mix-blend-mode:normal;" figma:type="group">
<g id="Vector" style="mix-blend-mode:normal;" figma:type="vector">
<use xlink:href="#path26_fill" transform="translate(2494 434.432)" fill="#E6E6E6" style="mix-blend-mode:normal;"/>
</g>
</g>
<g id="city-hall" style="mix-blend-mode:normal;" figma:type="group">
<g id="Vector" style="mix-blend-mode:normal;" figma:type="vector">
<use xlink:href="#path27_fill" transform="matrix(1 0 0 1 2615.2 300.25)" fill="#E6E6E6" style="mix-blend-mode:normal;"/>
</g>
</g>
<g id="department-store" style="mix-blend-mode:normal;" figma:type="group">
<g id="Vector" style="mix-blend-mode:normal;" figma:type="vector">
<use xlink:href="#path28_fill" transform="translate(2612.91 445.432)" fill="#E6E6E6" style="mix-blend-mode:normal;"/>
</g>
</g>
<g id="food" style="mix-blend-mode:normal;" figma:type="group">
<g id="Vector" style="mix-blend-mode:normal;" figma:type="vector">
<use xlink:href="#path29_fill" transform="translate(2490.5 305.183)" fill="#E6E6E6" style="mix-blend-mode:normal;"/>
</g>
</g>
<g id="museum" style="mix-blend-mode:normal;" figma:type="group">
<g id="Vector" style="mix-blend-mode:normal;" figma:type="vector">
<use xlink:href="#path30_fill" transform="translate(2382 448.432)" fill="#E6E6E6" style="mix-blend-mode:normal;"/>
</g>
</g>
<g id="car-rental" style="mix-blend-mode:normal;" opacity="0.2" figma:type="group">
<g id="Vector" style="mix-blend-mode:normal;" figma:type="vector">
<use xlink:href="#path31_fill" transform="translate(2573 -2.99997)" fill="#E6E6E6" style="mix-blend-mode:normal;"/>
</g>
</g>
<g id="train-station" style="mix-blend-mode:normal;" opacity="0.2" figma:type="group">
<g id="Vector" style="mix-blend-mode:normal;" figma:type="vector">
<use xlink:href="#path32_fill" transform="translate(2525 -2.44318)" fill="#E6E6E6" style="mix-blend-mode:normal;"/>
</g>
</g>
<g id="walking" style="mix-blend-mode:normal;" figma:type="group">
<g id="Group" style="mix-blend-mode:normal;" figma:type="group">
<g id="Vector" style="mix-blend-mode:normal;" figma:type="vector">
<use xlink:href="#path33_fill" transform="matrix(1 0 0 1 2479.5 1.56252)" fill="#E6E6E6" style="mix-blend-mode:normal;"/>
</g>
<g id="Vector" style="mix-blend-mode:normal;" figma:type="vector">
<use xlink:href="#path34_fill" transform="matrix(1 0 0 1 2483.5 -2.99997)" fill="#E6E6E6" style="mix-blend-mode:normal;"/>
</g>
</g>
</g>
</g>
</g>
<defs>
<path id="path0_fill" d="M 0 0L 375 0L 375 667L 0 667L 0 0Z"/>
<path id="path1_fill" d="M 11 0L 20.5263 16.5L 1.47372 16.5L 11 0Z"/>
<path id="path2_stroke" d="M 0.5 -1L 0 -1L 0 0L 0.5 0L 0.5 -1ZM 307.5 0L 308 0L 308 -1L 307.5 -1L 307.5 0ZM 0.5 0L 307.5 0L 307.5 -1L 0.5 -1L 0.5 0Z"/>
<path id="path3_fill" d="M 1.06641 0.738281L 2.42676 0.738281L 2.42676 9.58398L 7.5127 9.58398L 7.5127 10.7803L 1.06641 10.7803L 1.06641 0.738281ZM 12.2937 9.9873C 13.1095 9.9873 13.6678 9.67969 13.9686 9.06445C 14.2739 8.44466 14.4266 7.75651 14.4266 7C 14.4266 6.31641 14.3172 5.76042 14.0984 5.33203C 13.7521 4.65755 13.1551 4.32031 12.3074 4.32031C 11.5555 4.32031 11.0086 4.60742 10.6668 5.18164C 10.325 5.75586 10.1541 6.44857 10.1541 7.25977C 10.1541 8.03906 10.325 8.68848 10.6668 9.20801C 11.0086 9.72754 11.5509 9.9873 12.2937 9.9873ZM 12.3416 3.24707C 13.285 3.24707 14.0825 3.56152 14.7342 4.19043C 15.3859 4.81934 15.7117 5.74447 15.7117 6.96582C 15.7117 8.14616 15.4246 9.12142 14.8504 9.8916C 14.2762 10.6618 13.3852 11.0469 12.1775 11.0469C 11.1704 11.0469 10.3706 10.7074 9.77812 10.0283C 9.18568 9.34473 8.88945 8.42871 8.88945 7.28027C 8.88945 6.0498 9.20163 5.06999 9.82598 4.34082C 10.4503 3.61165 11.2889 3.24707 12.3416 3.24707ZM 20.6979 3.24707C 21.5227 3.24707 22.1926 3.44759 22.7076 3.84863C 23.2271 4.24967 23.5393 4.9401 23.6441 5.91992L 22.4479 5.91992C 22.3749 5.46875 22.2086 5.09505 21.9488 4.79883C 21.6891 4.49805 21.2721 4.34766 20.6979 4.34766C 19.914 4.34766 19.3535 4.73047 19.0162 5.49609C 18.7975 5.99284 18.6881 6.60579 18.6881 7.33496C 18.6881 8.06868 18.843 8.6862 19.1529 9.1875C 19.4628 9.6888 19.9505 9.93945 20.6158 9.93945C 21.1262 9.93945 21.5296 9.78451 21.8258 9.47461C 22.1266 9.16016 22.3339 8.73177 22.4479 8.18945L 23.6441 8.18945C 23.5074 9.16016 23.1656 9.87109 22.6187 10.3223C 22.0719 10.7689 21.3723 10.9922 20.5201 10.9922C 19.5631 10.9922 18.7997 10.6436 18.2301 9.94629C 17.6604 9.24447 17.3756 8.36947 17.3756 7.32129C 17.3756 6.03613 17.6878 5.03581 18.3121 4.32031C 18.9365 3.60482 19.7317 3.24707 20.6979 3.24707ZM 26.518 8.83203C 26.518 9.1875 26.6479 9.46777 26.9076 9.67285C 27.1674 9.87793 27.475 9.98047 27.8305 9.98047C 28.2634 9.98047 28.6827 9.88021 29.0883 9.67969C 29.7719 9.34701 30.1137 8.80241 30.1137 8.0459L 30.1137 7.05469C 29.9633 7.15039 29.7696 7.23014 29.5326 7.29395C 29.2956 7.35775 29.0632 7.40332 28.8354 7.43066L 28.0902 7.52637C 27.6436 7.58561 27.3087 7.67904 27.0854 7.80664C 26.7071 8.02083 26.518 8.36263 26.518 8.83203ZM 29.4984 6.34375C 29.781 6.30729 29.9701 6.1888 30.0658 5.98828C 30.1205 5.87891 30.1479 5.72168 30.1479 5.5166C 30.1479 5.09733 29.9975 4.79427 29.6967 4.60742C 29.4005 4.41602 28.9743 4.32031 28.4184 4.32031C 27.7758 4.32031 27.3201 4.49349 27.0512 4.83984C 26.9008 5.03125 26.8028 5.31608 26.7572 5.69434L 25.6088 5.69434C 25.6316 4.79199 25.9232 4.16536 26.4838 3.81445C 27.0489 3.45898 27.7029 3.28125 28.4457 3.28125C 29.307 3.28125 30.0066 3.44531 30.5443 3.77344C 31.0775 4.10156 31.3441 4.61198 31.3441 5.30469L 31.3441 9.52246C 31.3441 9.65007 31.3692 9.7526 31.4193 9.83008C 31.474 9.90755 31.5857 9.94629 31.7543 9.94629C 31.809 9.94629 31.8705 9.94401 31.9389 9.93945C 32.0072 9.93034 32.0801 9.91895 32.1576 9.90527L 32.1576 10.8145C 31.9662 10.8691 31.8204 10.9033 31.7201 10.917C 31.6199 10.9307 31.4831 10.9375 31.31 10.9375C 30.8861 10.9375 30.5785 10.7871 30.3871 10.4863C 30.2868 10.3268 30.2162 10.1012 30.1752 9.80957C 29.9245 10.1377 29.5645 10.4225 29.0951 10.6641C 28.6257 10.9056 28.1085 11.0264 27.5434 11.0264C 26.8643 11.0264 26.3083 10.8213 25.8754 10.4111C 25.447 9.99642 25.2328 9.47917 25.2328 8.85938C 25.2328 8.18034 25.4447 7.65397 25.8686 7.28027C 26.2924 6.90658 26.8484 6.67643 27.5365 6.58984L 29.4984 6.34375ZM 34.3068 1.41504L 35.551 1.41504L 35.551 3.45898L 36.7199 3.45898L 36.7199 4.46387L 35.551 4.46387L 35.551 9.24219C 35.551 9.4974 35.6376 9.66829 35.8107 9.75488C 35.9064 9.80501 36.0659 9.83008 36.2893 9.83008C 36.3485 9.83008 36.4123 9.83008 36.4807 9.83008C 36.549 9.82552 36.6288 9.81868 36.7199 9.80957L 36.7199 10.7803C 36.5786 10.8213 36.4305 10.8509 36.2756 10.8691C 36.1252 10.8874 35.9611 10.8965 35.7834 10.8965C 35.2092 10.8965 34.8195 10.7507 34.6145 10.459C 34.4094 10.1628 34.3068 9.77995 34.3068 9.31055L 34.3068 4.46387L 33.3156 4.46387L 33.3156 3.45898L 34.3068 3.45898L 34.3068 1.41504ZM 38.6504 3.49316L 39.9014 3.49316L 39.9014 10.7803L 38.6504 10.7803L 38.6504 3.49316ZM 38.6504 0.738281L 39.9014 0.738281L 39.9014 2.13281L 38.6504 2.13281L 38.6504 0.738281ZM 45.366 9.9873C 46.1818 9.9873 46.74 9.67969 47.0408 9.06445C 47.3462 8.44466 47.4988 7.75651 47.4988 7C 47.4988 6.31641 47.3895 5.76042 47.1707 5.33203C 46.8243 4.65755 46.2273 4.32031 45.3797 4.32031C 44.6277 4.32031 44.0809 4.60742 43.7391 5.18164C 43.3973 5.75586 43.2264 6.44857 43.2264 7.25977C 43.2264 8.03906 43.3973 8.68848 43.7391 9.20801C 44.0809 9.72754 44.6232 9.9873 45.366 9.9873ZM 45.4139 3.24707C 46.3572 3.24707 47.1548 3.56152 47.8064 4.19043C 48.4581 4.81934 48.784 5.74447 48.784 6.96582C 48.784 8.14616 48.4969 9.12142 47.9227 9.8916C 47.3484 10.6618 46.4575 11.0469 45.2498 11.0469C 44.2426 11.0469 43.4428 10.7074 42.8504 10.0283C 42.2579 9.34473 41.9617 8.42871 41.9617 7.28027C 41.9617 6.0498 42.2739 5.06999 42.8982 4.34082C 43.5226 3.61165 44.3611 3.24707 45.4139 3.24707ZM 50.9469 3.45898L 52.1158 3.45898L 52.1158 4.49805C 52.4622 4.06966 52.829 3.76204 53.2164 3.5752C 53.6038 3.38835 54.0344 3.29492 54.5084 3.29492C 55.5475 3.29492 56.2493 3.65723 56.6139 4.38184C 56.8144 4.77832 56.9146 5.3457 56.9146 6.08398L 56.9146 10.7803L 55.6637 10.7803L 55.6637 6.16602C 55.6637 5.7194 55.5976 5.35938 55.4654 5.08594C 55.2467 4.63021 54.8502 4.40234 54.276 4.40234C 53.9843 4.40234 53.7451 4.43197 53.5582 4.49121C 53.221 4.59147 52.9247 4.79199 52.6695 5.09277C 52.4645 5.33431 52.33 5.58496 52.2662 5.84473C 52.207 6.09993 52.1773 6.4668 52.1773 6.94531L 52.1773 10.7803L 50.9469 10.7803L 50.9469 3.45898ZM 64.3166 0.738281L 68.8352 0.738281C 69.7284 0.738281 70.4484 0.991211 70.9953 1.49707C 71.5422 1.99837 71.8156 2.70475 71.8156 3.61621C 71.8156 4.40007 71.5718 5.08366 71.0842 5.66699C 70.5965 6.24577 69.8469 6.53516 68.8352 6.53516L 65.677 6.53516L 65.677 10.7803L 64.3166 10.7803L 64.3166 0.738281ZM 70.4416 3.62305C 70.4416 2.88477 70.1682 2.38346 69.6213 2.11914C 69.3205 1.97786 68.9081 1.90723 68.384 1.90723L 65.677 1.90723L 65.677 5.38672L 68.384 5.38672C 68.9947 5.38672 69.4891 5.25684 69.8674 4.99707C 70.2502 4.7373 70.4416 4.2793 70.4416 3.62305ZM 74.0947 0.738281L 75.3252 0.738281L 75.3252 10.7803L 74.0947 10.7803L 74.0947 0.738281ZM 78.8143 8.83203C 78.8143 9.1875 78.9441 9.46777 79.2039 9.67285C 79.4637 9.87793 79.7713 9.98047 80.1268 9.98047C 80.5597 9.98047 80.979 9.88021 81.3846 9.67969C 82.0682 9.34701 82.41 8.80241 82.41 8.0459L 82.41 7.05469C 82.2596 7.15039 82.0659 7.23014 81.8289 7.29395C 81.5919 7.35775 81.3595 7.40332 81.1316 7.43066L 80.3865 7.52637C 79.9399 7.58561 79.6049 7.67904 79.3816 7.80664C 79.0034 8.02083 78.8143 8.36263 78.8143 8.83203ZM 81.7947 6.34375C 82.0773 6.30729 82.2664 6.1888 82.3621 5.98828C 82.4168 5.87891 82.4441 5.72168 82.4441 5.5166C 82.4441 5.09733 82.2937 4.79427 81.993 4.60742C 81.6967 4.41602 81.2706 4.32031 80.7146 4.32031C 80.0721 4.32031 79.6163 4.49349 79.3475 4.83984C 79.1971 5.03125 79.0991 5.31608 79.0535 5.69434L 77.9051 5.69434C 77.9279 4.79199 78.2195 4.16536 78.7801 3.81445C 79.3452 3.45898 79.9992 3.28125 80.742 3.28125C 81.6033 3.28125 82.3029 3.44531 82.8406 3.77344C 83.3738 4.10156 83.6404 4.61198 83.6404 5.30469L 83.6404 9.52246C 83.6404 9.65007 83.6655 9.7526 83.7156 9.83008C 83.7703 9.90755 83.882 9.94629 84.0506 9.94629C 84.1053 9.94629 84.1668 9.94401 84.2352 9.93945C 84.3035 9.93034 84.3764 9.91895 84.4539 9.90527L 84.4539 10.8145C 84.2625 10.8691 84.1167 10.9033 84.0164 10.917C 83.9161 10.9307 83.7794 10.9375 83.6062 10.9375C 83.1824 10.9375 82.8748 10.7871 82.6834 10.4863C 82.5831 10.3268 82.5125 10.1012 82.4715 9.80957C 82.2208 10.1377 81.8608 10.4225 81.3914 10.6641C 80.922 10.9056 80.4047 11.0264 79.8396 11.0264C 79.1606 11.0264 78.6046 10.8213 78.1717 10.4111C 77.7433 9.99642 77.5291 9.47917 77.5291 8.85938C 77.5291 8.18034 77.741 7.65397 78.1648 7.28027C 78.5887 6.90658 79.1447 6.67643 79.8328 6.58984L 81.7947 6.34375ZM 89.1803 3.24707C 90.0051 3.24707 90.6751 3.44759 91.19 3.84863C 91.7096 4.24967 92.0217 4.9401 92.1266 5.91992L 90.9303 5.91992C 90.8574 5.46875 90.691 5.09505 90.4313 4.79883C 90.1715 4.49805 89.7545 4.34766 89.1803 4.34766C 88.3964 4.34766 87.8359 4.73047 87.4986 5.49609C 87.2799 5.99284 87.1705 6.60579 87.1705 7.33496C 87.1705 8.06868 87.3255 8.6862 87.6354 9.1875C 87.9452 9.6888 88.4329 9.93945 89.0982 9.93945C 89.6087 9.93945 90.012 9.78451 90.3082 9.47461C 90.609 9.16016 90.8163 8.73177 90.9303 8.18945L 92.1266 8.18945C 91.9898 9.16016 91.648 9.87109 91.1012 10.3223C 90.5543 10.7689 89.8548 10.9922 89.0025 10.9922C 88.0455 10.9922 87.2822 10.6436 86.7125 9.94629C 86.1428 9.24447 85.858 8.36947 85.858 7.32129C 85.858 6.03613 86.1702 5.03581 86.7945 4.32031C 87.4189 3.60482 88.2141 3.24707 89.1803 3.24707ZM 97.1059 3.29492C 97.6254 3.29492 98.129 3.41797 98.6166 3.66406C 99.1042 3.9056 99.4756 4.22005 99.7309 4.60742C 99.977 4.97656 100.141 5.40723 100.223 5.89941C 100.296 6.23665 100.332 6.77441 100.332 7.5127L 94.9662 7.5127C 94.989 8.25553 95.1645 8.85254 95.4926 9.30371C 95.8207 9.75033 96.3288 9.97363 97.017 9.97363C 97.6596 9.97363 98.1723 9.76172 98.5551 9.33789C 98.7738 9.0918 98.9288 8.80697 99.0199 8.4834L 100.23 8.4834C 100.198 8.75228 100.091 9.05306 99.9086 9.38574C 99.7309 9.71387 99.5303 9.98275 99.307 10.1924C 98.9333 10.557 98.4708 10.8031 97.9193 10.9307C 97.6231 11.0036 97.2881 11.04 96.9145 11.04C 96.003 11.04 95.2305 10.7096 94.5971 10.0488C 93.9636 9.38346 93.6469 8.45378 93.6469 7.25977C 93.6469 6.08398 93.9659 5.12923 94.6039 4.39551C 95.2419 3.66178 96.0759 3.29492 97.1059 3.29492ZM 99.0678 6.53516C 99.0176 6.00195 98.9014 5.57585 98.7191 5.25684C 98.3819 4.66439 97.8191 4.36816 97.0307 4.36816C 96.4656 4.36816 95.9916 4.57324 95.6088 4.9834C 95.226 5.389 95.0232 5.90625 95.0004 6.53516L 99.0678 6.53516Z"/>
<path id="path4_stroke" d="M 0.5 -1L 0 -1L 0 0L 0.5 0L 0.5 -1ZM 90.5 0L 91 0L 91 -1L 90.5 -1L 90.5 0ZM 0.5 0L 90.5 0L 90.5 -1L 0.5 -1L 0.5 0Z"/>
<path id="path5_fill" d="M 3.63672 11.0469C 2.47917 11.0469 1.63835 10.7301 1.11426 10.0967C 0.594727 9.45866 0.334961 8.68392 0.334961 7.77246L 1.62012 7.77246C 1.6748 8.40592 1.79329 8.86621 1.97559 9.15332C 2.2946 9.66829 2.87109 9.92578 3.70508 9.92578C 4.35221 9.92578 4.87174 9.7526 5.26367 9.40625C 5.6556 9.0599 5.85156 8.61328 5.85156 8.06641C 5.85156 7.39193 5.64421 6.92025 5.22949 6.65137C 4.81934 6.38249 4.2474 6.24805 3.51367 6.24805C 3.43164 6.24805 3.34733 6.25033 3.26074 6.25488C 3.17871 6.25488 3.0944 6.25716 3.00781 6.26172L 3.00781 5.1748C 3.13542 5.18848 3.24251 5.19759 3.3291 5.20215C 3.41569 5.20671 3.50911 5.20898 3.60938 5.20898C 4.06966 5.20898 4.44792 5.13607 4.74414 4.99023C 5.26367 4.73503 5.52344 4.2793 5.52344 3.62305C 5.52344 3.13542 5.35026 2.75944 5.00391 2.49512C 4.65755 2.23079 4.25423 2.09863 3.79395 2.09863C 2.97363 2.09863 2.40625 2.37207 2.0918 2.91895C 1.91862 3.21973 1.82064 3.64811 1.79785 4.2041L 0.581055 4.2041C 0.581055 3.47494 0.726888 2.85514 1.01855 2.34473C 1.51986 1.43327 2.40169 0.977539 3.66406 0.977539C 4.66211 0.977539 5.43457 1.20085 5.98145 1.64746C 6.52832 2.08952 6.80176 2.7321 6.80176 3.5752C 6.80176 4.17676 6.63997 4.66439 6.31641 5.03809C 6.11589 5.27051 5.85612 5.4528 5.53711 5.58496C 6.05208 5.72624 6.45312 5.99967 6.74023 6.40527C 7.0319 6.80632 7.17773 7.2985 7.17773 7.88184C 7.17773 8.81608 6.87012 9.57715 6.25488 10.165C 5.63965 10.7529 4.76693 11.0469 3.63672 11.0469ZM 13.9781 0.704102L 15.2086 0.704102L 15.2086 4.4502C 15.5003 4.08105 15.7623 3.82129 15.9947 3.6709C 16.3912 3.41113 16.8857 3.28125 17.4781 3.28125C 18.54 3.28125 19.26 3.65267 19.6383 4.39551C 19.8434 4.80111 19.9459 5.36393 19.9459 6.08398L 19.9459 10.7803L 18.6812 10.7803L 18.6812 6.16602C 18.6812 5.62826 18.6129 5.23405 18.4762 4.9834C 18.2529 4.58236 17.8336 4.38184 17.2184 4.38184C 16.7079 4.38184 16.2454 4.55729 15.8307 4.9082C 15.416 5.25911 15.2086 5.9222 15.2086 6.89746L 15.2086 10.7803L 13.9781 10.7803L 13.9781 0.704102ZM 30.7795 7.31445L 30.7795 2.87793L 27.6418 7.31445L 30.7795 7.31445ZM 30.8 10.7803L 30.8 8.3877L 26.507 8.3877L 26.507 7.18457L 30.9914 0.963867L 32.0305 0.963867L 32.0305 7.31445L 33.4729 7.31445L 33.4729 8.3877L 32.0305 8.3877L 32.0305 10.7803L 30.8 10.7803ZM 38.4248 0.991211C 39.6917 0.991211 40.6077 1.51302 41.1729 2.55664C 41.6104 3.36328 41.8291 4.46842 41.8291 5.87207C 41.8291 7.2028 41.6309 8.30339 41.2344 9.17383C 40.6602 10.4225 39.7214 11.0469 38.418 11.0469C 37.2422 11.0469 36.3672 10.5365 35.793 9.51562C 35.3145 8.66341 35.0752 7.51953 35.0752 6.08398C 35.0752 4.97201 35.2188 4.01725 35.5059 3.21973C 36.0436 1.73405 37.0166 0.991211 38.4248 0.991211ZM 38.4111 9.92578C 39.0492 9.92578 39.5573 9.64323 39.9355 9.07812C 40.3138 8.51302 40.5029 7.46029 40.5029 5.91992C 40.5029 4.80794 40.3662 3.89421 40.0928 3.17871C 39.8193 2.45866 39.2884 2.09863 38.5 2.09863C 37.7754 2.09863 37.2445 2.44043 36.9072 3.12402C 36.5745 3.80306 36.4082 4.80566 36.4082 6.13184C 36.4082 7.12988 36.5153 7.93197 36.7295 8.53809C 37.0576 9.46322 37.6182 9.92578 38.4111 9.92578ZM 48.6158 3.45898L 49.8326 3.45898L 49.8326 4.49805C 50.1243 4.13802 50.3886 3.87598 50.6256 3.71191C 51.0312 3.43392 51.4915 3.29492 52.0064 3.29492C 52.5898 3.29492 53.0592 3.43848 53.4146 3.72559C 53.6152 3.88965 53.7975 4.13118 53.9615 4.4502C 54.235 4.05827 54.5563 3.76888 54.9254 3.58203C 55.2945 3.39062 55.7092 3.29492 56.1695 3.29492C 57.1539 3.29492 57.8238 3.65039 58.1793 4.36133C 58.3707 4.74414 58.4664 5.25911 58.4664 5.90625L 58.4664 10.7803L 57.1881 10.7803L 57.1881 5.69434C 57.1881 5.20671 57.065 4.87174 56.8189 4.68945C 56.5774 4.50716 56.2812 4.41602 55.9303 4.41602C 55.4472 4.41602 55.0302 4.5778 54.6793 4.90137C 54.3329 5.22493 54.1598 5.76497 54.1598 6.52148L 54.1598 10.7803L 52.9088 10.7803L 52.9088 6.00195C 52.9088 5.50521 52.8495 5.1429 52.7311 4.91504C 52.5442 4.57324 52.1956 4.40234 51.6852 4.40234C 51.2203 4.40234 50.7965 4.58236 50.4137 4.94238C 50.0354 5.30241 49.8463 5.9541 49.8463 6.89746L 49.8463 10.7803L 48.6158 10.7803L 48.6158 3.45898ZM 60.9779 3.49316L 62.2289 3.49316L 62.2289 10.7803L 60.9779 10.7803L 60.9779 3.49316ZM 60.9779 0.738281L 62.2289 0.738281L 62.2289 2.13281L 60.9779 2.13281L 60.9779 0.738281ZM 64.7883 3.45898L 65.9572 3.45898L 65.9572 4.49805C 66.3036 4.06966 66.6704 3.76204 67.0578 3.5752C 67.4452 3.38835 67.8758 3.29492 68.3498 3.29492C 69.3889 3.29492 70.0907 3.65723 70.4553 4.38184C 70.6558 4.77832 70.7561 5.3457 70.7561 6.08398L 70.7561 10.7803L 69.5051 10.7803L 69.5051 6.16602C 69.5051 5.7194 69.439 5.35938 69.3068 5.08594C 69.0881 4.63021 68.6916 4.40234 68.1174 4.40234C 67.8257 4.40234 67.5865 4.43197 67.3996 4.49121C 67.0624 4.59147 66.7661 4.79199 66.5109 5.09277C 66.3059 5.33431 66.1714 5.58496 66.1076 5.84473C 66.0484 6.09993 66.0187 6.4668 66.0187 6.94531L 66.0187 10.7803L 64.7883 10.7803L 64.7883 3.45898Z"/>
<path id="path6_fill" d="M 0 0L 15 0L 15 5L 0 5L 0 0Z"/>
<path id="path7_fill" d="M 0 0L 21 0L 21 5L 0 5L 0 0Z"/>
<path id="path8_fill" d="M 0 0L 31 0L 31 5L 0 5L 0 0Z"/>
<path id="path9_fill" d="M 15.792 9.528L 15.648 9.528L 15.552 8.448L 15.384 8.352L 15.552 7.752L 15.648 6.672L 15.384 6.168L 14.112 5.736L 13.512 5.592L 12.912 4.896L 13.176 5.232L 13.176 5.832L 13.008 5.832L 12.816 5.496L 12.672 5.832L 12.576 6.672L 12.432 6.672L 12.576 6.768L 12.576 7.608L 12.432 8.352L 12.696 8.784L 12.6 8.952L 12.336 8.952L 12 8.808L 12 9.048L 12.432 9.888L 12.24 10.32L 12.336 10.32L 12.456 10.224L 12.936 10.728L 12.936 10.824L 12.84 10.92L 12.696 10.92L 13.296 11.76L 14.376 12L 15.216 11.64L 15.072 11.496L 15.408 10.896L 15.408 9.96L 15.792 9.528ZM 15.696 20.52L 15.6 20.376L 15 20.184L 15.096 20.016L 15.432 19.92L 15.336 19.776L 15.096 19.2L 14.736 19.2L 13.896 18.408L 13.464 18.264L 13.464 17.904L 12.864 17.664L 12.864 17.568L 12.72 16.968L 12.024 16.056L 11.28 15.072L 11.28 14.712L 10.344 13.872L 10.248 13.2L 9.408 12.6L 9.504 12.12L 8.904 11.328L 9.048 11.184L 9.048 11.088L 8.808 11.088L 8.448 10.824L 8.544 10.728L 8.544 10.488L 8.208 10.248L 7.968 9.744L 6.432 7.632L 6.408 7.296L 5.232 6.024L 4.152 5.616L 3.456 5.88L 3.36 6.024L 2.76 6.12L 2.76 6.456L 2.376 6.96L 2.88 7.056L 2.52 7.56L 2.784 7.992L 2.52 8.232L 2.616 8.4L 2.784 9.072L 3.12 9.432L 4.152 9.912L 5.256 11.088L 5.16 11.184L 5.496 11.544L 5.496 11.784L 5.736 11.784L 5.856 11.928L 5.856 12.264L 6.528 12.96L 6.552 13.296L 7.032 13.56L 7.032 13.896L 7.536 14.376L 7.536 14.736L 7.728 14.736L 7.968 15.216L 7.992 16.056L 8.328 15.912L 8.712 16.056L 8.832 16.392L 9.168 16.752L 9.504 17.424L 9.672 17.592L 10.008 18.528L 10.512 18.768L 10.512 19.104L 10.704 19.2L 11.544 20.64L 11.904 20.784L 11.904 20.88L 11.808 20.976L 12.288 21.576L 12.288 22.152L 12.888 22.656L 13.824 22.752L 13.68 22.896L 14.52 22.992L 15.096 22.632L 15.6 21.936L 15.336 21.456L 15.696 20.52ZM 5.64 21.144L 5.376 20.904L 5.376 20.808L 5.64 20.568L 5.52 19.464L 5.376 19.368L 5.376 19.032L 5.52 18.432L 5.28 17.448L 4.08 16.512L 3.744 16.872L 3.144 17.016L 2.808 17.952L 2.664 18.888L 2.664 19.728L 2.688 22.008L 2.592 22.008L 2.928 22.68L 3.768 22.92L 3.864 22.776L 4.8 22.776L 5.304 22.584L 5.544 21.144L 5.64 21.144ZM 25.416 6.768L 25.32 6.672L 24.744 6.168L 24.48 5.592L 24.144 5.592L 23.064 5.832L 22.368 6.336L 22.224 7.128L 22.128 7.032L 21.888 7.032L 21.624 7.512L 21.528 7.368L 21.048 8.208L 21.192 8.304L 20.712 8.904L 20.616 9.408L 20.616 10.08L 20.712 11.064L 20.472 11.424L 20.856 11.664L 20.472 12.024L 20.856 12.264L 20.616 12.456L 20.616 12.696L 20.712 12.84L 20.376 13.056L 20.712 14.472L 20.976 14.712L 20.616 15.072L 20.472 16.248L 20.376 16.248L 20.736 17.424L 20.4 17.784L 20.64 18.024L 20.64 18.624L 20.736 18.768L 20.64 18.864L 20.88 19.2L 20.736 19.368L 20.736 19.8L 21 20.736L 21.096 20.64L 22.272 22.056L 23.016 22.296L 23.112 22.752L 24.888 22.752L 24.888 22.488L 25.032 21.912L 25.248 21.912L 25.248 21.696L 25.128 21.72L 25.032 21.552L 25.032 20.52L 24.792 20.376L 23.712 19.704L 23.856 19.536L 23.856 19.44L 23.448 19.104L 23.352 18.504L 23.592 18.264L 23.592 17.76L 23.592 16.728L 23.352 16.488L 23.688 15.792L 23.328 15.552L 23.448 15.312L 23.328 15.216L 23.328 15.048L 23.448 14.952L 23.568 13.632L 23.328 12.936L 23.424 12.84L 23.568 11.4L 23.664 11.4L 23.568 10.224L 23.904 9.288L 23.808 9.144L 25.08 7.944L 24.984 7.848L 25.176 7.272L 25.08 7.104L 25.416 6.768ZM 33.744 14.664L 33.48 14.424L 33.384 12.312L 33.624 11.808L 33.384 11.376L 33.48 11.232L 33.48 10.536L 33.384 9.456L 32.784 8.28L 33.024 8.064L 32.88 8.064L 32.424 7.584L 32.184 7.08L 32.28 6.984L 32.088 6.744L 31.68 6.744L 31.248 6.312L 30.744 6.312L 30.504 5.904L 30.408 6.048L 30.312 6.048L 29.472 5.808L 28.728 6.168L 28.872 6.744L 28.536 7.488L 29.328 8.28L 29.232 8.424L 29.928 8.784L 30.312 9.456L 30.408 9.6L 30.528 10.2L 30.912 10.632L 30.432 11.736L 30.528 11.832L 30.768 12.216L 30.696 15.024L 30.528 15.024L 30.528 15.624L 30.696 15.768L 30.696 16.56L 30.336 17.16L 30.456 17.16L 30.552 17.304L 30.792 18L 30.456 19.512L 29.616 20.256L 29.52 20.952L 29.04 20.952L 28.776 21.288L 29.04 22.392L 29.376 22.392L 29.64 22.632L 29.64 22.728L 29.976 22.728L 30.456 22.872L 30.36 22.968L 30.576 22.632L 31.152 22.632L 31.656 22.368L 31.656 22.032L 32.328 21.888L 33.312 20.352L 33.312 18.912L 33.504 18.576L 33.504 17.736L 33.408 16.344L 33.504 16.344L 33.408 15.504L 33.648 15.264L 33.504 15.168L 33.504 14.928L 33.744 14.664ZM 45.576 12.216L 44.832 11.88L 44.832 11.28L 44.592 10.8L 43.392 9.528L 43.056 8.448L 42.216 7.752L 42.216 7.416L 41.616 6.672L 41.424 6.432L 40.68 5.4L 40.32 5.4L 39.84 5.832L 39.048 5.832L 38.472 8.016L 38.664 8.352L 38.664 9.048L 40.44 10.56L 40.944 11.304L 41.88 12.576L 41.64 12.84L 43.08 14.016L 43.224 13.92L 43.56 14.256L 43.416 14.352L 43.92 14.352L 44.16 14.496L 45 13.896L 45.336 14.088L 45.192 13.752L 45.432 13.512L 45.576 12.216ZM 51.696 13.728L 51.36 13.032L 51.6 12.792L 51.336 10.08L 51.576 7.368L 51.336 6.624L 51.48 6.384L 50.976 6.288L 50.976 5.952L 50.28 5.352L 50.136 5.688L 49.2 6.192L 49.104 6.048L 49.2 5.952L 49.44 5.592L 49.2 5.208L 48.864 5.448L 48.696 5.616L 48.6 6.288L 47.424 7.488L 47.688 7.824L 47.544 7.968L 47.424 7.968L 47.328 8.328L 47.352 9.6L 47.688 9.6L 47.928 10.536L 48.384 11.04L 48.384 11.28L 48.288 11.976L 48.528 12.216L 48.528 12.552L 48.288 13.056L 48.648 13.392L 48.552 14.688L 48.288 15.072L 48.144 14.928L 48.144 15.168L 48.312 15.264L 48.408 15.168L 48.648 15.408L 48.408 16.104L 48.648 16.344L 48.552 16.848L 48.408 16.848L 48.552 18.384L 48.312 18.624L 48.168 19.224L 48.576 19.8L 48.576 20.256L 48.576 21.192L 48.576 22.032L 48.768 22.272L 48.768 22.368L 49.608 22.512L 50.448 23.112L 50.784 22.752L 51.384 21.912L 51.288 20.832L 51.528 19.992L 51.384 19.992L 51.12 19.8L 51.264 19.656L 51.528 19.656L 51.384 19.536L 51.384 19.2L 51.624 18.72L 51.36 18.456L 51.504 17.88L 51.264 17.616L 51.504 16.824L 51.504 14.904L 51.36 14.808L 51.696 13.728ZM 41.568 18.744L 41.064 18.048L 41.208 17.328L 40.608 16.632L 39.288 16.488L 38.832 16.872L 38.592 17.232L 38.496 19.608L 38.712 20.88L 38.52 21.12L 38.52 21.624L 38.856 22.2L 38.712 22.296L 38.712 22.56L 39.456 22.8L 40.152 22.896L 40.152 22.992L 41.232 22.632L 41.232 22.296L 41.328 21.36L 41.472 21.024L 41.568 18.744ZM 69.264 21.576L 68.88 21.096L 68.52 20.016L 68.424 18.48L 68.064 18.048L 68.064 17.544L 67.824 17.304L 67.824 16.464L 67.464 16.128L 67.464 14.832L 66.864 13.416L 66.864 12.816L 66.624 12.216L 66.48 11.28L 65.88 10.2L 66.024 9.864L 65.664 9.168L 65.52 8.184L 65.064 7.488L 65.28 6.816L 65.16 6.912L 64.08 5.976L 62.904 5.736L 61.872 5.976L 61.608 6.336L 61.032 5.736L 60.528 5.496L 60.336 6.096L 60.192 6.096L 60.192 6.432L 60.336 7.512L 60.456 8.808L 60.192 8.808L 60.192 9.048L 60.792 9.984L 61.632 10.464L 61.632 10.56L 61.968 10.56L 62.328 10.704L 62.328 11.304L 62.928 11.304L 63.168 11.64L 63.312 12.72L 63.672 13.32L 63.672 13.92L 64.008 14.256L 64.008 15.096L 64.272 15.288L 64.272 15.792L 64.704 16.728L 64.872 16.872L 64.872 17.544L 65.304 18.744L 65.808 19.824L 65.712 19.92L 65.568 19.92L 65.568 20.256L 65.904 20.856L 66.168 21.6L 66.504 22.632L 66.672 22.536L 67.104 22.872L 68.088 22.968L 68.424 22.176L 69.024 22.032L 69.264 21.576ZM 61.656 19.104L 61.416 18.408L 61.56 17.904L 61.32 17.664L 61.32 16.968L 60.48 15.312L 60.576 15.216L 60.216 14.856L 59.976 14.52L 59.28 14.52L 58.44 15.312L 58.104 15.312L 58.008 15.72L 57.864 16.656L 57.768 16.656L 57.768 17.832L 57.528 18.072L 57.432 18.072L 57.192 19.104L 56.688 19.848L 56.832 20.208L 56.352 20.904L 56.592 21.624L 56.592 22.32L 57.048 22.824L 56.952 22.92L 57.552 22.8L 58.368 22.8L 58.488 22.656L 58.728 22.656L 59.664 21.48L 59.664 21.024L 60 20.28L 61.656 19.104ZM 77.856 11.04L 77.496 10.656L 77.688 10.2L 77.592 10.2L 77.472 9.384L 77.64 9.12L 77.808 9.12L 77.64 9.024L 77.616 8.424L 77.424 8.184L 77.424 8.088L 77.736 7.68L 77.376 7.248L 77.448 6.504L 76.512 6.096L 76.488 5.952L 75.912 6.12L 75.552 5.88L 75.168 6.144L 75.192 6.504L 75.096 6.744L 75 6.6L 74.904 6.696L 75 6.792L 75.096 6.744L 75.12 7.68L 74.808 8.04L 74.712 9.576L 75.216 9.792L 74.976 10.056L 74.88 10.416L 75.144 10.992L 74.784 11.496L 74.928 11.592L 74.952 12.336L 74.808 12.192L 74.76 12.288L 74.856 12.384L 74.952 12.336L 74.832 13.032L 74.976 13.104L 74.64 13.512L 75 13.848L 74.688 14.208L 74.784 14.304L 74.832 15.48L 74.712 15.504L 75.096 16.224L 74.88 16.824L 74.76 16.824L 74.976 17.16L 74.88 17.256L 74.784 17.256L 74.808 17.856L 74.928 18.6L 74.712 19.296L 74.976 19.872L 74.736 20.136L 74.904 20.712L 75.024 20.808L 74.784 21.408L 75.552 21.984L 75.408 22.128L 75.312 22.128L 75.576 22.368L 75.576 22.464L 75.432 22.56L 75.336 22.584L 75.576 22.824L 75.576 22.968L 76.368 22.776L 76.512 22.68L 76.608 22.776L 76.968 22.752L 76.944 22.512L 77.088 22.416L 77.184 21.912L 77.328 21.912L 77.4 21.552L 77.76 21.552L 77.736 21.312L 77.304 21.12L 77.28 20.88L 77.376 20.736L 77.64 20.952L 77.472 20.712L 77.376 20.616L 77.352 20.28L 77.448 20.136L 77.592 20.136L 77.352 19.68L 77.568 19.2L 77.4 18.264L 77.616 17.904L 77.472 16.488L 77.688 15.888L 77.544 15.792L 77.76 14.688L 77.4 14.208L 77.64 14.016L 77.736 13.992L 77.472 13.512L 77.448 13.032L 77.592 13.032L 77.568 12.576L 77.328 12.576L 77.184 12.456L 77.328 12.336L 77.424 12.336L 77.4 12.096L 77.544 11.64L 77.616 11.04L 77.856 11.04ZM 87.84 12.456L 87.816 12.216L 87.72 12.312L 87.216 11.976L 87.696 11.376L 87.192 10.8L 87.336 10.704L 87.288 9.6L 87.264 8.784L 86.904 8.544L 87 8.448L 86.376 7.872L 86.472 7.776L 85.416 6.72L 85.512 6.624L 84.552 6.408L 83.952 5.928L 82.08 5.904L 81.696 6.264L 81.6 6.504L 81.36 6.528L 81.36 6.768L 81.504 6.768L 81.6 6.864L 81.384 7.368L 81.552 7.704L 81.744 7.68L 81.912 8.28L 82.008 8.136L 82.608 8.352L 83.112 8.688L 83.208 8.568L 83.448 8.808L 84.312 9.384L 84.336 9.72L 84.792 10.392L 84.84 11.232L 85.08 11.472L 85.08 11.568L 84.984 11.712L 84.792 12.912L 85.152 13.248L 85.056 13.344L 84.72 13.608L 84.72 13.944L 84.84 13.944L 84.936 14.088L 84.96 14.52L 84.792 15.624L 84.648 15.624L 84.912 16.104L 84.84 16.896L 85.032 17.136L 85.056 17.28L 84.96 17.4L 84.864 17.4L 84.96 17.496L 84.648 18.576L 84.312 18.84L 84.336 19.2L 83.616 19.8L 82.92 19.824L 82.344 20.352L 82.2 20.448L 82.104 20.352L 81.864 20.568L 81.192 20.832L 81.432 21.072L 81.216 22.008L 81.48 22.008L 81.6 22.584L 81.936 22.584L 82.08 22.488L 82.44 22.92L 83.376 23.016L 84.456 22.728L 84.456 22.488L 85.368 22.2L 85.8 21.504L 86.04 21.504L 87.072 20.184L 86.928 20.04L 86.928 19.944L 87.48 19.08L 87.288 18.84L 87.36 18.744L 87.36 18.576L 87.6 17.976L 87.24 17.808L 87.576 17.4L 87.672 17.4L 87.648 17.04L 87.552 16.944L 87.792 16.704L 87.552 16.704L 87.36 16.032L 87.264 15.888L 87.504 15.432L 87.456 14.088L 87.552 14.088L 87.528 13.848L 87.672 13.752L 87.432 13.512L 87.528 13.392L 87.72 12.312L 87.84 12.456Z"/>
<path id="path10_stroke" d="M 1 -2L 0 -2L 0 0L 1 0L 1 -2ZM 10 0L 11 0L 11 -2L 10 -2L 10 0ZM 1 0L 10 0L 10 -2L 1 -2L 1 0Z"/>
<path id="path11_fill" d="M 5 0L 9.33013 7.5L 0.669873 7.5L 5 0Z"/>
<path id="path12_fill" d="M 0.808594 7.48828C 0.808594 5.22656 1.41504 3.4834 2.62793 2.25879C 3.68262 1.19238 5.02441 0.65918 6.65332 0.65918C 8.83301 0.65918 10.4268 1.37402 11.4346 2.80371C 11.9912 3.60645 12.29 4.41211 12.3311 5.2207L 9.62402 5.2207C 9.44824 4.59961 9.22266 4.13086 8.94727 3.81445C 8.45508 3.25195 7.72559 2.9707 6.75879 2.9707C 5.77441 2.9707 4.99805 3.36914 4.42969 4.16602C 3.86133 4.95703 3.57715 6.0791 3.57715 7.53223C 3.57715 8.98535 3.87598 10.0752 4.47363 10.8018C 5.07715 11.5225 5.8418 11.8828 6.76758 11.8828C 7.7168 11.8828 8.44043 11.5723 8.93848 10.9512C 9.21387 10.6172 9.44238 10.1162 9.62402 9.44824L 12.3047 9.44824C 12.0703 10.8604 11.4697 12.0088 10.5029 12.8936C 9.54199 13.7783 8.30859 14.2207 6.80273 14.2207C 4.93945 14.2207 3.47461 13.623 2.4082 12.4277C 1.3418 11.2266 0.808594 9.58008 0.808594 7.48828ZM 19.3701 0.905273L 22.0771 0.905273L 22.0771 11.5312L 28.4932 11.5312L 28.4932 13.8604L 19.3701 13.8604L 19.3701 0.905273ZM 37.8438 13.8604L 35.1543 13.8604L 35.1543 0.905273L 37.8438 0.905273L 37.8438 13.8604ZM 44.8037 7.48828C 44.8037 5.22656 45.4102 3.4834 46.623 2.25879C 47.6777 1.19238 49.0195 0.65918 50.6484 0.65918C 52.8281 0.65918 54.4219 1.37402 55.4297 2.80371C 55.9863 3.60645 56.2852 4.41211 56.3262 5.2207L 53.6191 5.2207C 53.4434 4.59961 53.2178 4.13086 52.9424 3.81445C 52.4502 3.25195 51.7207 2.9707 50.7539 2.9707C 49.7695 2.9707 48.9932 3.36914 48.4248 4.16602C 47.8564 4.95703 47.5723 6.0791 47.5723 7.53223C 47.5723 8.98535 47.8711 10.0752 48.4688 10.8018C 49.0723 11.5225 49.8369 11.8828 50.7627 11.8828C 51.7119 11.8828 52.4355 11.5723 52.9336 10.9512C 53.209 10.6172 53.4375 10.1162 53.6191 9.44824L 56.2998 9.44824C 56.0654 10.8604 55.4648 12.0088 54.498 12.8936C 53.5371 13.7783 52.3037 14.2207 50.7979 14.2207C 48.9346 14.2207 47.4697 13.623 46.4033 12.4277C 45.3369 11.2266 44.8037 9.58008 44.8037 7.48828ZM 63.4092 0.905273L 66.0723 0.905273L 66.0723 6.24023L 71.0732 0.905273L 74.5713 0.905273L 69.2627 6.24023L 74.8438 13.8604L 71.3633 13.8604L 67.3643 8.2002L 66.0723 9.52734L 66.0723 13.8604L 63.4092 13.8604L 63.4092 0.905273ZM 100.778 0.905273L 100.778 3.19922L 96.9023 3.19922L 96.9023 13.8604L 94.1777 13.8604L 94.1777 3.19922L 90.2842 3.19922L 90.2842 0.905273L 100.778 0.905273ZM 113.091 11.9268C 114.163 11.9268 115.013 11.5312 115.64 10.7402C 116.272 9.94922 116.589 8.82422 116.589 7.36523C 116.589 5.91211 116.272 4.79004 115.64 3.99902C 115.013 3.20215 114.163 2.80371 113.091 2.80371C 112.019 2.80371 111.163 3.19922 110.524 3.99023C 109.886 4.78125 109.566 5.90625 109.566 7.36523C 109.566 8.82422 109.886 9.94922 110.524 10.7402C 111.163 11.5312 112.019 11.9268 113.091 11.9268ZM 119.296 7.36523C 119.296 9.69141 118.643 11.4727 117.336 12.709C 116.357 13.7168 114.942 14.2207 113.091 14.2207C 111.239 14.2207 109.824 13.7168 108.846 12.709C 107.533 11.4727 106.877 9.69141 106.877 7.36523C 106.877 4.99219 107.533 3.21094 108.846 2.02148C 109.824 1.01367 111.239 0.509766 113.091 0.509766C 114.942 0.509766 116.357 1.01367 117.336 2.02148C 118.643 3.21094 119.296 4.99219 119.296 7.36523ZM 138.99 3.15527L 138.99 11.6104L 141.486 11.6104C 142.764 11.6104 143.654 10.9805 144.158 9.7207C 144.434 9.0293 144.571 8.20605 144.571 7.25098C 144.571 5.93262 144.363 4.92188 143.947 4.21875C 143.537 3.50977 142.717 3.15527 141.486 3.15527L 138.99 3.15527ZM 141.943 0.905273C 142.746 0.916993 143.414 1.01074 143.947 1.18652C 144.855 1.48535 145.591 2.0332 146.153 2.83008C 146.604 3.47461 146.912 4.17187 147.076 4.92188C 147.24 5.67187 147.322 6.38672 147.322 7.06641C 147.322 8.78906 146.977 10.248 146.285 11.4434C 145.348 13.0547 143.9 13.8604 141.943 13.8604L 136.362 13.8604L 136.362 0.905273L 141.943 0.905273ZM 163.941 3.19922L 157.086 3.19922L 157.086 5.9502L 163.379 5.9502L 163.379 8.2002L 157.086 8.2002L 157.086 11.5312L 164.258 11.5312L 164.258 13.8604L 154.44 13.8604L 154.44 0.905273L 163.941 0.905273L 163.941 3.19922ZM 171.367 0.922852L 180.552 0.922852L 180.552 3.19922L 174.057 3.19922L 174.057 6.17871L 179.743 6.17871L 179.743 8.42871L 174.057 8.42871L 174.057 13.8604L 171.367 13.8604L 171.367 0.922852ZM 189.841 13.8604L 187.151 13.8604L 187.151 0.905273L 189.841 0.905273L 189.841 13.8604ZM 197.319 0.905273L 200.158 0.905273L 205.317 9.94922L 205.317 0.905273L 207.84 0.905273L 207.84 13.8604L 205.133 13.8604L 199.842 4.6582L 199.842 13.8604L 197.319 13.8604L 197.319 0.905273ZM 224.942 3.19922L 218.087 3.19922L 218.087 5.9502L 224.38 5.9502L 224.38 8.2002L 218.087 8.2002L 218.087 11.5312L 225.259 11.5312L 225.259 13.8604L 215.441 13.8604L 215.441 0.905273L 224.942 0.905273L 224.942 3.19922ZM 8.7627 24.3053L 11.8301 24.3053L 7.49707 32.3912L 7.49707 37.2604L 4.79004 37.2604L 4.79004 32.3912L 0.307617 24.3053L 3.49805 24.3053L 6.1875 29.9479L 8.7627 24.3053ZM 24.1074 35.3268C 25.1797 35.3268 26.0293 34.9313 26.6562 34.1402C 27.2891 33.3492 27.6055 32.2242 27.6055 30.7652C 27.6055 29.3121 27.2891 28.19 26.6562 27.399C 26.0293 26.6022 25.1797 26.2037 24.1074 26.2037C 23.0352 26.2037 22.1797 26.5992 21.541 27.3902C 20.9023 28.1813 20.583 29.3063 20.583 30.7652C 20.583 32.2242 20.9023 33.3492 21.541 34.1402C 22.1797 34.9313 23.0352 35.3268 24.1074 35.3268ZM 30.3125 30.7652C 30.3125 33.0914 29.6592 34.8727 28.3525 36.109C 27.374 37.1168 25.959 37.6207 24.1074 37.6207C 22.2559 37.6207 20.8408 37.1168 19.8623 36.109C 18.5498 34.8727 17.8936 33.0914 17.8936 30.7652C 17.8936 28.3922 18.5498 26.6109 19.8623 25.4215C 20.8408 24.4137 22.2559 23.9098 24.1074 23.9098C 25.959 23.9098 27.374 24.4137 28.3525 25.4215C 29.6592 26.6109 30.3125 28.3922 30.3125 30.7652ZM 37.3779 24.3053L 40.1289 24.3053L 40.1289 32.2682C 40.1289 33.1588 40.2344 33.8092 40.4453 34.2193C 40.7734 34.9459 41.4883 35.3092 42.5898 35.3092C 43.6855 35.3092 44.3975 34.9459 44.7256 34.2193C 44.9365 33.8092 45.042 33.1588 45.042 32.2682L 45.042 24.3053L 47.793 24.3053L 47.793 32.2682C 47.793 33.6451 47.5791 34.7174 47.1514 35.485C 46.3545 36.8912 44.834 37.5943 42.5898 37.5943C 40.3457 37.5943 38.8223 36.8912 38.0195 35.485C 37.5918 34.7174 37.3779 33.6451 37.3779 32.2682L 37.3779 24.3053ZM 58.084 26.5553L 58.084 30.0357L 61.1514 30.0357C 61.7607 30.0357 62.2178 29.9654 62.5225 29.8248C 63.0615 29.5787 63.3311 29.0924 63.3311 28.3658C 63.3311 27.5807 63.0703 27.0533 62.5488 26.7838C 62.2559 26.6314 61.8164 26.5553 61.2305 26.5553L 58.084 26.5553ZM 61.793 24.3053C 62.7012 24.3229 63.3984 24.4342 63.8848 24.6393C 64.377 24.8443 64.793 25.1461 65.1328 25.5445C 65.4141 25.8727 65.6367 26.2359 65.8008 26.6344C 65.9648 27.0328 66.0469 27.4869 66.0469 27.9967C 66.0469 28.6119 65.8916 29.2184 65.5811 29.816C 65.2705 30.4078 64.7578 30.8268 64.043 31.0729C 64.6406 31.3131 65.0625 31.6559 65.3086 32.1012C 65.5605 32.5406 65.6865 33.2145 65.6865 34.1227L 65.6865 34.9928C 65.6865 35.5846 65.71 35.9859 65.7568 36.1969C 65.8271 36.5309 65.9912 36.777 66.249 36.9352L 66.249 37.2604L 63.2695 37.2604C 63.1875 36.9732 63.1289 36.7418 63.0938 36.566C 63.0234 36.2027 62.9854 35.8307 62.9795 35.4498L 62.9619 34.2457C 62.9502 33.4195 62.7979 32.8688 62.5049 32.5934C 62.2178 32.318 61.6758 32.1803 60.8789 32.1803L 58.084 32.1803L 58.084 37.2604L 55.4385 37.2604L 55.4385 24.3053L 61.793 24.3053ZM 85.8555 37.2604L 83.166 37.2604L 83.166 24.3053L 85.8555 24.3053L 85.8555 37.2604ZM 93.334 24.3053L 96.1729 24.3053L 101.332 33.3492L 101.332 24.3053L 103.854 24.3053L 103.854 37.2604L 101.147 37.2604L 95.8564 28.0582L 95.8564 37.2604L 93.334 37.2604L 93.334 24.3053ZM 120.79 24.3053L 120.79 26.5992L 116.914 26.5992L 116.914 37.2604L 114.189 37.2604L 114.189 26.5992L 110.296 26.5992L 110.296 24.3053L 120.79 24.3053ZM 136.952 26.5992L 130.097 26.5992L 130.097 29.3502L 136.39 29.3502L 136.39 31.6002L 130.097 31.6002L 130.097 34.9313L 137.269 34.9313L 137.269 37.2604L 127.451 37.2604L 127.451 24.3053L 136.952 24.3053L 136.952 26.5992ZM 147.085 26.5553L 147.085 30.0357L 150.152 30.0357C 150.762 30.0357 151.219 29.9654 151.523 29.8248C 152.063 29.5787 152.332 29.0924 152.332 28.3658C 152.332 27.5807 152.071 27.0533 151.55 26.7838C 151.257 26.6314 150.817 26.5553 150.231 26.5553L 147.085 26.5553ZM 150.794 24.3053C 151.702 24.3229 152.399 24.4342 152.886 24.6393C 153.378 24.8443 153.794 25.1461 154.134 25.5445C 154.415 25.8727 154.638 26.2359 154.802 26.6344C 154.966 27.0328 155.048 27.4869 155.048 27.9967C 155.048 28.6119 154.893 29.2184 154.582 29.816C 154.271 30.4078 153.759 30.8268 153.044 31.0729C 153.642 31.3131 154.063 31.6559 154.31 32.1012C 154.562 32.5406 154.688 33.2145 154.688 34.1227L 154.688 34.9928C 154.688 35.5846 154.711 35.9859 154.758 36.1969C 154.828 36.5309 154.992 36.777 155.25 36.9352L 155.25 37.2604L 152.271 37.2604C 152.188 36.9732 152.13 36.7418 152.095 36.566C 152.024 36.2027 151.986 35.8307 151.98 35.4498L 151.963 34.2457C 151.951 33.4195 151.799 32.8688 151.506 32.5934C 151.219 32.318 150.677 32.1803 149.88 32.1803L 147.085 32.1803L 147.085 37.2604L 144.439 37.2604L 144.439 24.3053L 150.794 24.3053ZM 171.957 26.5992L 165.102 26.5992L 165.102 29.3502L 171.395 29.3502L 171.395 31.6002L 165.102 31.6002L 165.102 34.9313L 172.273 34.9313L 172.273 37.2604L 162.456 37.2604L 162.456 24.3053L 171.957 24.3053L 171.957 26.5992ZM 181.343 33.2613C 181.425 33.8531 181.586 34.2955 181.826 34.5885C 182.266 35.1217 183.019 35.3883 184.085 35.3883C 184.724 35.3883 185.242 35.318 185.641 35.1773C 186.396 34.9078 186.774 34.4068 186.774 33.6744C 186.774 33.2467 186.587 32.9156 186.212 32.6813C 185.837 32.4527 185.248 32.2506 184.445 32.0748L 183.074 31.7672C 181.727 31.4625 180.795 31.1314 180.279 30.774C 179.406 30.1764 178.97 29.2418 178.97 27.9703C 178.97 26.8102 179.392 25.8463 180.235 25.0787C 181.079 24.3111 182.318 23.9273 183.953 23.9273C 185.318 23.9273 186.481 24.2906 187.442 25.0172C 188.409 25.7379 188.916 26.7867 188.963 28.1637L 186.361 28.1637C 186.314 27.3844 185.975 26.8307 185.342 26.5025C 184.92 26.2857 184.396 26.1773 183.769 26.1773C 183.071 26.1773 182.515 26.318 182.099 26.5992C 181.683 26.8805 181.475 27.273 181.475 27.777C 181.475 28.2398 181.68 28.5855 182.09 28.8141C 182.354 28.9664 182.916 29.1451 183.777 29.3502L 186.01 29.8863C 186.988 30.1207 187.727 30.4342 188.225 30.8268C 188.998 31.4361 189.385 32.318 189.385 33.4723C 189.385 34.6559 188.931 35.6402 188.022 36.4254C 187.12 37.2047 185.843 37.5943 184.19 37.5943C 182.503 37.5943 181.176 37.2105 180.209 36.443C 179.242 35.6695 178.759 34.609 178.759 33.2613L 181.343 33.2613ZM 205.802 24.3053L 205.802 26.5992L 201.926 26.5992L 201.926 37.2604L 199.201 37.2604L 199.201 26.5992L 195.308 26.5992L 195.308 24.3053L 205.802 24.3053ZM 214.344 33.2613C 214.426 33.8531 214.587 34.2955 214.827 34.5885C 215.267 35.1217 216.02 35.3883 217.086 35.3883C 217.725 35.3883 218.243 35.318 218.642 35.1773C 219.397 34.9078 219.775 34.4068 219.775 33.6744C 219.775 33.2467 219.588 32.9156 219.213 32.6813C 218.838 32.4527 218.249 32.2506 217.446 32.0748L 216.075 31.7672C 214.728 31.4625 213.796 31.1314 213.28 30.774C 212.407 30.1764 211.971 29.2418 211.971 27.9703C 211.971 26.8102 212.393 25.8463 213.236 25.0787C 214.08 24.3111 215.319 23.9273 216.954 23.9273C 218.319 23.9273 219.482 24.2906 220.443 25.0172C 221.41 25.7379 221.917 26.7867 221.964 28.1637L 219.362 28.1637C 219.315 27.3844 218.976 26.8307 218.343 26.5025C 217.921 26.2857 217.396 26.1773 216.77 26.1773C 216.072 26.1773 215.516 26.318 215.1 26.5992C 214.684 26.8805 214.476 27.273 214.476 27.777C 214.476 28.2398 214.681 28.5855 215.091 28.8141C 215.354 28.9664 215.917 29.1451 216.778 29.3502L 219.011 29.8863C 219.989 30.1207 220.728 30.4342 221.226 30.8268C 221.999 31.4361 222.386 32.318 222.386 33.4723C 222.386 34.6559 221.932 35.6402 221.023 36.4254C 220.121 37.2047 218.844 37.5943 217.191 37.5943C 215.504 37.5943 214.177 37.2105 213.21 36.443C 212.243 35.6695 211.76 34.609 211.76 33.2613L 214.344 33.2613Z"/>
<path id="path13_fill" d="M 5.32232 5.23682L 4.12456 1.75098L 2.85161 5.23682L 5.32232 5.23682ZM 3.56597 0.580078L 4.77446 0.580078L 7.63726 8.47021L 6.46636 8.47021L 5.66607 6.10693L 2.54546 6.10693L 1.69146 8.47021L 0.595753 8.47021L 3.56597 0.580078ZM 10.2326 0.580078L 11.7633 0.580078L 14.0299 7.25098L 16.2804 0.580078L 17.7951 0.580078L 17.7951 8.47021L 16.7799 8.47021L 16.7799 3.81348C 16.7799 3.65234 16.7835 3.38558 16.7907 3.01318C 16.7978 2.64079 16.8014 2.24154 16.8014 1.81543L 14.5509 8.47021L 13.4928 8.47021L 11.2262 1.81543L 11.2262 2.05713C 11.2262 2.25049 11.2298 2.5459 11.237 2.94336C 11.2477 3.33724 11.2531 3.62728 11.2531 3.81348L 11.2531 8.47021L 10.2326 8.47021L 10.2326 0.580078ZM 22.2327 0.580078L 22.2327 5.45703C 22.2327 6.02995 22.3401 6.50618 22.5549 6.88574C 22.8736 7.45866 23.4107 7.74512 24.1663 7.74512C 25.0722 7.74512 25.6881 7.43538 26.0139 6.81592C 26.1894 6.47933 26.2771 6.02637 26.2771 5.45703L 26.2771 0.580078L 27.3621 0.580078L 27.3621 5.01123C 27.3621 5.98161 27.2314 6.72819 26.97 7.25098C 26.4902 8.20345 25.5842 8.67969 24.2522 8.67969C 22.9202 8.67969 22.016 8.20345 21.5398 7.25098C 21.2784 6.72819 21.1477 5.98161 21.1477 5.01123L 21.1477 0.580078L 22.2327 0.580078ZM 31.3646 5.92432C 31.3897 6.37191 31.4953 6.73535 31.6815 7.01465C 32.036 7.53743 32.6608 7.79883 33.556 7.79883C 33.957 7.79883 34.3223 7.74154 34.6517 7.62695C 35.2891 7.40495 35.6078 7.00749 35.6078 6.43457C 35.6078 6.00488 35.4735 5.69873 35.2049 5.51611C 34.9328 5.33708 34.5067 5.18132 33.9266 5.04883L 32.8578 4.80713C 32.1595 4.64958 31.6654 4.47591 31.3753 4.28613C 30.874 3.95671 30.6234 3.46436 30.6234 2.80908C 30.6234 2.1001 30.8687 1.51823 31.3592 1.06348C 31.8498 0.608724 32.5445 0.381348 33.4432 0.381348C 34.2704 0.381348 34.9722 0.581869 35.5487 0.98291C 36.1288 1.38037 36.4188 2.01774 36.4188 2.89502L 35.4144 2.89502C 35.3607 2.47249 35.2461 2.14844 35.0707 1.92285C 34.7448 1.51107 34.1916 1.30518 33.411 1.30518C 32.7808 1.30518 32.3278 1.43766 32.0521 1.70264C 31.7764 1.96761 31.6385 2.27555 31.6385 2.62646C 31.6385 3.01318 31.7997 3.29606 32.1219 3.4751C 32.3332 3.58968 32.8112 3.73291 33.556 3.90479L 34.6625 4.15723C 35.196 4.27897 35.6078 4.44548 35.8978 4.65674C 36.3991 5.02555 36.6498 5.56087 36.6498 6.2627C 36.6498 7.13639 36.3311 7.76123 35.6937 8.13721C 35.0599 8.51318 34.3223 8.70117 33.4808 8.70117C 32.4997 8.70117 31.7316 8.45052 31.1766 7.94922C 30.6216 7.4515 30.3495 6.77653 30.3602 5.92432L 31.3646 5.92432ZM 39.7553 0.580078L 45.5078 0.580078L 45.5078 1.54688L 40.7973 1.54688L 40.7973 3.94238L 45.1533 3.94238L 45.1533 4.85547L 40.7973 4.85547L 40.7973 7.53027L 45.5883 7.53027L 45.5883 8.47021L 39.7553 8.47021L 39.7553 0.580078ZM 48.6133 0.580078L 50.1441 0.580078L 52.4107 7.25098L 54.6612 0.580078L 56.1758 0.580078L 56.1758 8.47021L 55.1607 8.47021L 55.1607 3.81348C 55.1607 3.65234 55.1643 3.38558 55.1714 3.01318C 55.1786 2.64079 55.1822 2.24154 55.1822 1.81543L 52.9317 8.47021L 51.8736 8.47021L 49.607 1.81543L 49.607 2.05713C 49.607 2.25049 49.6106 2.5459 49.6177 2.94336C 49.6285 3.33724 49.6338 3.62728 49.6338 3.81348L 49.6338 8.47021L 48.6133 8.47021L 48.6133 0.580078ZM 59.5553 0.580078L 65.3078 0.580078L 65.3078 1.54688L 60.5973 1.54688L 60.5973 3.94238L 64.9533 3.94238L 64.9533 4.85547L 60.5973 4.85547L 60.5973 7.53027L 65.3883 7.53027L 65.3883 8.47021L 59.5553 8.47021L 59.5553 0.580078ZM 68.4402 0.580078L 69.7024 0.580078L 73.6877 6.97168L 73.6877 0.580078L 74.7029 0.580078L 74.7029 8.47021L 73.5051 8.47021L 69.4607 2.08398L 69.4607 8.47021L 68.4402 8.47021L 68.4402 0.580078ZM 83.7757 0.580078L 83.7757 1.52002L 81.117 1.52002L 81.117 8.47021L 80.0321 8.47021L 80.0321 1.52002L 77.3734 1.52002L 77.3734 0.580078L 83.7757 0.580078ZM 25.6626 11.5801L 29.2129 11.5801C 29.9148 11.5801 30.4805 11.7788 30.9102 12.1763C 31.3399 12.5701 31.5547 13.1252 31.5547 13.8413C 31.5547 14.4572 31.3632 14.9943 30.98 15.4526C 30.5969 15.9074 30.0079 16.1348 29.2129 16.1348L 26.7315 16.1348L 26.7315 19.4702L 25.6626 19.4702L 25.6626 11.5801ZM 30.4751 13.8467C 30.4751 13.2666 30.2603 12.8727 29.8306 12.665C 29.5943 12.554 29.2702 12.4985 28.8584 12.4985L 26.7315 12.4985L 26.7315 15.2324L 28.8584 15.2324C 29.3383 15.2324 29.7268 15.1304 30.024 14.9263C 30.3248 14.7222 30.4751 14.3623 30.4751 13.8467ZM 38.5973 16.2368L 37.3996 12.751L 36.1266 16.2368L 38.5973 16.2368ZM 36.841 11.5801L 38.0495 11.5801L 40.9123 19.4702L 39.7414 19.4702L 38.9411 17.1069L 35.8205 17.1069L 34.9665 19.4702L 33.8708 19.4702L 36.841 11.5801ZM 47.2029 15.1948C 47.7042 15.1948 48.0999 15.0946 48.3899 14.894C 48.6835 14.6935 48.8303 14.3319 48.8303 13.8091C 48.8303 13.2469 48.6262 12.8638 48.218 12.6597C 47.9996 12.5522 47.7078 12.4985 47.3425 12.4985L 44.7322 12.4985L 44.7322 15.1948L 47.2029 15.1948ZM 43.6633 11.5801L 47.3157 11.5801C 47.9172 11.5801 48.4132 11.6678 48.8035 11.8433C 49.5447 12.1799 49.9153 12.8011 49.9153 13.707C 49.9153 14.1797 49.8168 14.5664 49.6199 14.8672C 49.4265 15.168 49.1544 15.4097 48.8035 15.5923C 49.1114 15.7176 49.3424 15.8823 49.4963 16.0864C 49.6539 16.2905 49.7416 16.6217 49.7595 17.0801L 49.7971 18.1382C 49.8079 18.439 49.8329 18.6628 49.8723 18.8096C 49.9368 19.0602 50.0514 19.2214 50.2161 19.293L 50.2161 19.4702L 48.9055 19.4702C 48.8697 19.4022 48.8411 19.3145 48.8196 19.207C 48.7981 19.0996 48.7802 18.8919 48.7659 18.584L 48.7014 17.2681C 48.6764 16.7524 48.4848 16.4069 48.1267 16.2314C 47.9226 16.1348 47.6021 16.0864 47.1653 16.0864L 44.7322 16.0864L 44.7322 19.4702L 43.6633 19.4702L 43.6633 11.5801ZM 53.1283 11.5801L 54.1703 11.5801L 54.1703 15.4258L 58.016 11.5801L 59.493 11.5801L 56.2113 14.7598L 59.5843 19.4702L 58.1932 19.4702L 55.4325 15.5117L 54.1703 16.7202L 54.1703 19.4702L 53.1283 19.4702L 53.1283 11.5801Z"/>
<path id="path14_fill" d="M 4.91269 5.23682L 3.71494 1.75098L 2.44199 5.23682L 4.91269 5.23682ZM 3.15635 0.580078L 4.36484 0.580078L 7.22764 8.47021L 6.05674 8.47021L 5.25644 6.10693L 2.13584 6.10693L 1.28184 8.47021L 0.186132 8.47021L 3.15635 0.580078ZM 13.5183 4.19482C 14.0196 4.19482 14.4152 4.09456 14.7053 3.89404C 14.9989 3.69352 15.1457 3.33187 15.1457 2.80908C 15.1457 2.24691 14.9416 1.86377 14.5334 1.65967C 14.315 1.55225 14.0231 1.49854 13.6579 1.49854L 11.0476 1.49854L 11.0476 4.19482L 13.5183 4.19482ZM 9.97871 0.580078L 13.6311 0.580078C 14.2326 0.580078 14.7285 0.667806 15.1188 0.843262C 15.8601 1.17985 16.2307 1.80111 16.2307 2.70703C 16.2307 3.17969 16.1322 3.56641 15.9353 3.86719C 15.7419 4.16797 15.4698 4.40967 15.1188 4.59229C 15.4268 4.71761 15.6577 4.88232 15.8117 5.08643C 15.9693 5.29053 16.057 5.62174 16.0749 6.08008L 16.1125 7.13818C 16.1232 7.43896 16.1483 7.66276 16.1877 7.80957C 16.2521 8.06022 16.3667 8.22135 16.5314 8.29297L 16.5314 8.47021L 15.2209 8.47021C 15.1851 8.40218 15.1564 8.31445 15.135 8.20703C 15.1135 8.09961 15.0956 7.89193 15.0812 7.58398L 15.0168 6.26807C 14.9917 5.75244 14.8002 5.4069 14.4421 5.23145C 14.238 5.13477 13.9175 5.08643 13.4807 5.08643L 11.0476 5.08643L 11.0476 8.47021L 9.97871 8.47021L 9.97871 0.580078ZM 25.1854 0.580078L 25.1854 1.52002L 22.5267 1.52002L 22.5267 8.47021L 21.4417 8.47021L 21.4417 1.52002L 18.783 1.52002L 18.783 0.580078L 25.1854 0.580078Z"/>
<path id="path15_fill" d="M 4.19414 0.365234C 5.19316 0.365234 5.96839 0.628418 6.51982 1.15479C 7.07126 1.68115 7.37741 2.27913 7.43828 2.94873L 6.39629 2.94873C 6.27813 2.44027 6.0418 2.03744 5.68731 1.74023C 5.33639 1.44303 4.84225 1.29443 4.20488 1.29443C 3.42787 1.29443 2.79945 1.56836 2.31963 2.11621C 1.84339 2.66048 1.60527 3.49658 1.60527 4.62451C 1.60527 5.54834 1.82012 6.2985 2.24981 6.875C 2.68307 7.44792 3.32761 7.73438 4.1834 7.73438C 4.97116 7.73438 5.57093 7.4318 5.98272 6.82666C 6.20114 6.50798 6.36406 6.08903 6.47149 5.56982L 7.51348 5.56982C 7.42038 6.40055 7.11244 7.09701 6.58965 7.65918C 5.96302 8.33594 5.11797 8.67432 4.05449 8.67432C 3.13783 8.67432 2.36797 8.39681 1.74492 7.8418C 0.924936 7.10775 0.514942 5.97445 0.514942 4.44189C 0.514942 3.27816 0.822885 2.32389 1.43877 1.5791C 2.10479 0.769857 3.02324 0.365234 4.19414 0.365234ZM 14.5131 5.23682L 13.3153 1.75098L 12.0424 5.23682L 14.5131 5.23682ZM 12.7567 0.580078L 13.9652 0.580078L 16.828 8.47021L 15.6571 8.47021L 14.8568 6.10693L 11.7362 6.10693L 10.8822 8.47021L 9.78652 8.47021L 12.7567 0.580078ZM 19.5522 0.580078L 25.0254 0.580078L 25.0254 1.54688L 20.6211 1.54688L 20.6211 3.94238L 24.4937 3.94238L 24.4937 4.88232L 20.6211 4.88232L 20.6211 8.47021L 19.5522 8.47021L 19.5522 0.580078ZM 27.9215 0.580078L 33.6739 0.580078L 33.6739 1.54688L 28.9635 1.54688L 28.9635 3.94238L 33.3194 3.94238L 33.3194 4.85547L 28.9635 4.85547L 28.9635 7.53027L 33.7545 7.53027L 33.7545 8.47021L 27.9215 8.47021L 27.9215 0.580078Z"/>
<path id="path16_fill" d="M 4.21914 0.365234C 5.21816 0.365234 5.99339 0.628418 6.54482 1.15479C 7.09626 1.68115 7.40241 2.27913 7.46328 2.94873L 6.42129 2.94873C 6.30313 2.44027 6.0668 2.03744 5.71231 1.74023C 5.36139 1.44303 4.86725 1.29443 4.22988 1.29443C 3.45286 1.29443 2.82445 1.56836 2.34463 2.11621C 1.86839 2.66048 1.63027 3.49658 1.63027 4.62451C 1.63027 5.54834 1.84512 6.2985 2.27481 6.875C 2.70807 7.44792 3.3526 7.73438 4.2084 7.73438C 4.99616 7.73438 5.59593 7.4318 6.00772 6.82666C 6.22614 6.50798 6.38906 6.08903 6.49648 5.56982L 7.53848 5.56982C 7.44538 6.40055 7.13744 7.09701 6.61465 7.65918C 5.98802 8.33594 5.14297 8.67432 4.07949 8.67432C 3.16283 8.67432 2.39297 8.39681 1.76992 7.8418C 0.949935 7.10775 0.539942 5.97445 0.539942 4.44189C 0.539942 3.27816 0.847884 2.32389 1.46377 1.5791C 2.12979 0.769857 3.04824 0.365234 4.21914 0.365234ZM 14.5381 5.23682L 13.3403 1.75098L 12.0674 5.23682L 14.5381 5.23682ZM 12.7817 0.580078L 13.9902 0.580078L 16.853 8.47021L 15.6821 8.47021L 14.8818 6.10693L 11.7612 6.10693L 10.9072 8.47021L 9.81152 8.47021L 12.7817 0.580078ZM 19.4483 0.580078L 20.9791 0.580078L 23.2457 7.25098L 25.4962 0.580078L 27.0108 0.580078L 27.0108 8.47021L 25.9957 8.47021L 25.9957 3.81348C 25.9957 3.65234 25.9993 3.38558 26.0064 3.01318C 26.0136 2.64079 26.0172 2.24154 26.0172 1.81543L 23.7667 8.47021L 22.7086 8.47021L 20.442 1.81543L 20.442 2.05713C 20.442 2.25049 20.4456 2.5459 20.4527 2.94336C 20.4635 3.33724 20.4688 3.62728 20.4688 3.81348L 20.4688 8.47021L 19.4483 8.47021L 19.4483 0.580078ZM 30.3903 0.580078L 33.9406 0.580078C 34.6424 0.580078 35.2082 0.778809 35.6379 1.17627C 36.0676 1.57015 36.2824 2.12516 36.2824 2.84131C 36.2824 3.45719 36.0909 3.9943 35.7077 4.45264C 35.3246 4.90739 34.7355 5.13477 33.9406 5.13477L 31.4592 5.13477L 31.4592 8.47021L 30.3903 8.47021L 30.3903 0.580078ZM 35.2028 2.84668C 35.2028 2.2666 34.988 1.87272 34.5583 1.66504C 34.322 1.55404 33.9979 1.49854 33.5861 1.49854L 31.4592 1.49854L 31.4592 4.23242L 33.5861 4.23242C 34.066 4.23242 34.4545 4.13037 34.7517 3.92627C 35.0524 3.72217 35.2028 3.3623 35.2028 2.84668ZM 39.5169 0.580078L 40.5965 0.580078L 40.5965 8.47021L 39.5169 8.47021L 39.5169 0.580078ZM 43.9813 0.580078L 45.2436 0.580078L 49.2289 6.97168L 49.2289 0.580078L 50.244 0.580078L 50.244 8.47021L 49.0463 8.47021L 45.0019 2.08398L 45.0019 8.47021L 43.9813 8.47021L 43.9813 0.580078ZM 56.9858 0.375977C 57.7271 0.375977 58.368 0.519206 58.9087 0.805664C 59.6929 1.21745 60.1727 1.93896 60.3481 2.97021L 59.29 2.97021C 59.1611 2.39372 58.8944 1.97477 58.4897 1.71338C 58.0851 1.4484 57.5749 1.31592 56.959 1.31592C 56.2285 1.31592 55.6126 1.58984 55.1113 2.1377C 54.6136 2.68555 54.3647 3.50195 54.3647 4.58691C 54.3647 5.52507 54.5706 6.28955 54.9824 6.88037C 55.3942 7.46761 56.0656 7.76123 56.9966 7.76123C 57.7091 7.76123 58.2982 7.55534 58.7637 7.14355C 59.2327 6.72819 59.4727 6.05859 59.4834 5.13477L 57.0127 5.13477L 57.0127 4.24854L 60.4771 4.24854L 60.4771 8.47021L 59.7896 8.47021L 59.5317 7.45508C 59.1701 7.85254 58.8496 8.12826 58.5703 8.28223C 58.1012 8.5472 57.505 8.67969 56.7817 8.67969C 55.8472 8.67969 55.0433 8.37712 54.3701 7.77197C 53.6361 7.01286 53.269 5.97087 53.269 4.646C 53.269 3.32471 53.6271 2.27376 54.3433 1.49316C 55.0236 0.748373 55.9045 0.375977 56.9858 0.375977Z"/>
<path id="path17_fill" d="M 1.25225 0.580078L 6.72539 0.580078L 6.72539 1.54688L 2.32109 1.54688L 2.32109 3.94238L 6.19365 3.94238L 6.19365 4.88232L 2.32109 4.88232L 2.32109 8.47021L 1.25225 8.47021L 1.25225 0.580078ZM 12.9247 0.365234C 14.3176 0.365234 15.3489 0.812826 16.0185 1.70801C 16.5412 2.40625 16.8026 3.29964 16.8026 4.38818C 16.8026 5.56624 16.5036 6.54557 15.9057 7.32617C 15.2038 8.24284 14.203 8.70117 12.9032 8.70117C 11.6894 8.70117 10.7351 8.30013 10.0404 7.49805C 9.42096 6.72461 9.11123 5.74707 9.11123 4.56543C 9.11123 3.49837 9.3762 2.58529 9.90615 1.82617C 10.5865 0.852213 11.5927 0.365234 12.9247 0.365234ZM 13.0321 7.74512C 13.9739 7.74512 14.6542 7.40853 15.0731 6.73535C 15.4957 6.05859 15.7069 5.28158 15.7069 4.4043C 15.7069 3.47689 15.4634 2.73031 14.9765 2.16455C 14.4931 1.5988 13.8306 1.31592 12.9892 1.31592C 12.1728 1.31592 11.5067 1.59701 10.9911 2.15918C 10.4755 2.71777 10.2177 3.54313 10.2177 4.63525C 10.2177 5.50895 10.4379 6.24658 10.8783 6.84814C 11.3223 7.44613 12.0403 7.74512 13.0321 7.74512ZM 23.1309 0.365234C 24.5238 0.365234 25.555 0.812826 26.2246 1.70801C 26.7474 2.40625 27.0088 3.29964 27.0088 4.38818C 27.0088 5.56624 26.7098 6.54557 26.1118 7.32617C 25.41 8.24284 24.4092 8.70117 23.1094 8.70117C 21.8955 8.70117 20.9412 8.30013 20.2466 7.49805C 19.6271 6.72461 19.3174 5.74707 19.3174 4.56543C 19.3174 3.49837 19.5824 2.58529 20.1123 1.82617C 20.7926 0.852213 21.7988 0.365234 23.1309 0.365234ZM 23.2383 7.74512C 24.18 7.74512 24.8604 7.40853 25.2793 6.73535C 25.7018 6.05859 25.9131 5.28158 25.9131 4.4043C 25.9131 3.47689 25.6696 2.73031 25.1826 2.16455C 24.6992 1.5988 24.0368 1.31592 23.1953 1.31592C 22.3789 1.31592 21.7129 1.59701 21.1973 2.15918C 20.6816 2.71777 20.4238 3.54313 20.4238 4.63525C 20.4238 5.50895 20.644 6.24658 21.0845 6.84814C 21.5285 7.44613 22.2464 7.74512 23.2383 7.74512ZM 32.961 7.55713C 33.3227 7.55713 33.6199 7.51953 33.8526 7.44434C 34.268 7.30469 34.6082 7.03613 34.8731 6.63867C 35.0844 6.31999 35.2366 5.91178 35.3297 5.41406C 35.3834 5.11686 35.4103 4.84115 35.4103 4.58691C 35.4103 3.60938 35.2151 2.85026 34.8248 2.30957C 34.4381 1.76888 33.8133 1.49854 32.9503 1.49854L 31.0543 1.49854L 31.0543 7.55713L 32.961 7.55713ZM 29.9801 0.580078L 33.1759 0.580078C 34.2608 0.580078 35.1023 0.965006 35.7003 1.73486C 36.2338 2.42952 36.5006 3.31934 36.5006 4.4043C 36.5006 5.24219 36.343 5.99951 36.0279 6.67627C 35.4729 7.87223 34.5187 8.47021 33.1651 8.47021L 29.9801 8.47021L 29.9801 0.580078Z"/>
<path id="path18_fill" d="M 0.826027 0.580078L 2.35679 0.580078L 4.62339 7.25098L 6.87388 0.580078L 8.38853 0.580078L 8.38853 8.47021L 7.37339 8.47021L 7.37339 3.81348C 7.37339 3.65234 7.37697 3.38558 7.38413 3.01318C 7.39129 2.64079 7.39487 2.24154 7.39487 1.81543L 5.14439 8.47021L 4.08628 8.47021L 1.81968 1.81543L 1.81968 2.05713C 1.81968 2.25049 1.82326 2.5459 1.83042 2.94336C 1.84116 3.33724 1.84653 3.62728 1.84653 3.81348L 1.84653 8.47021L 0.826027 8.47021L 0.826027 0.580078ZM 15.0712 0.365234C 16.4641 0.365234 17.4954 0.812826 18.165 1.70801C 18.6878 2.40625 18.9492 3.29964 18.9492 4.38818C 18.9492 5.56624 18.6502 6.54557 18.0522 7.32617C 17.3504 8.24284 16.3496 8.70117 15.0498 8.70117C 13.8359 8.70117 12.8816 8.30013 12.187 7.49805C 11.5675 6.72461 11.2578 5.74707 11.2578 4.56543C 11.2578 3.49837 11.5227 2.58529 12.0527 1.82617C 12.733 0.852213 13.7392 0.365234 15.0712 0.365234ZM 15.1787 7.74512C 16.1204 7.74512 16.8007 7.40853 17.2197 6.73535C 17.6422 6.05859 17.8535 5.28158 17.8535 4.4043C 17.8535 3.47689 17.61 2.73031 17.123 2.16455C 16.6396 1.5988 15.9772 1.31592 15.1357 1.31592C 14.3193 1.31592 13.6533 1.59701 13.1376 2.15918C 12.622 2.71777 12.3642 3.54313 12.3642 4.63525C 12.3642 5.50895 12.5844 6.24658 13.0249 6.84814C 13.4689 7.44613 14.1868 7.74512 15.1787 7.74512ZM 21.8721 0.580078L 23.1343 0.580078L 27.1197 6.97168L 27.1197 0.580078L 28.1348 0.580078L 28.1348 8.47021L 26.9371 8.47021L 22.8926 2.08398L 22.8926 8.47021L 21.8721 8.47021L 21.8721 0.580078ZM 32.6261 0.580078L 32.6261 5.45703C 32.6261 6.02995 32.7335 6.50618 32.9484 6.88574C 33.2671 7.45866 33.8042 7.74512 34.5597 7.74512C 35.4656 7.74512 36.0815 7.43538 36.4074 6.81592C 36.5828 6.47933 36.6706 6.02637 36.6706 5.45703L 36.6706 0.580078L 37.7555 0.580078L 37.7555 5.01123C 37.7555 5.98161 37.6248 6.72819 37.3634 7.25098C 36.8836 8.20345 35.9777 8.67969 34.6457 8.67969C 33.3136 8.67969 32.4095 8.20345 31.9333 7.25098C 31.6719 6.72819 31.5412 5.98161 31.5412 5.01123L 31.5412 0.580078L 32.6261 0.580078ZM 41.033 0.580078L 42.5637 0.580078L 44.8303 7.25098L 47.0808 0.580078L 48.5955 0.580078L 48.5955 8.47021L 47.5803 8.47021L 47.5803 3.81348C 47.5803 3.65234 47.5839 3.38558 47.5911 3.01318C 47.5982 2.64079 47.6018 2.24154 47.6018 1.81543L 45.3513 8.47021L 44.2932 8.47021L 42.0266 1.81543L 42.0266 2.05713C 42.0266 2.25049 42.0302 2.5459 42.0374 2.94336C 42.0481 3.33724 42.0535 3.62728 42.0535 3.81348L 42.0535 8.47021L 41.033 8.47021L 41.033 0.580078ZM 51.975 0.580078L 57.7274 0.580078L 57.7274 1.54688L 53.0169 1.54688L 53.0169 3.94238L 57.3729 3.94238L 57.3729 4.85547L 53.0169 4.85547L 53.0169 7.53027L 57.808 7.53027L 57.808 8.47021L 51.975 8.47021L 51.975 0.580078ZM 60.8598 0.580078L 62.122 0.580078L 66.1074 6.97168L 66.1074 0.580078L 67.1225 0.580078L 67.1225 8.47021L 65.9248 8.47021L 61.8803 2.08398L 61.8803 8.47021L 60.8598 8.47021L 60.8598 0.580078ZM 76.1954 0.580078L 76.1954 1.52002L 73.5367 1.52002L 73.5367 8.47021L 72.4517 8.47021L 72.4517 1.52002L 69.793 1.52002L 69.793 0.580078L 76.1954 0.580078Z"/>
<path id="path19_fill" d="M 0.917187 0.580078L 2.44795 0.580078L 4.71455 7.25098L 6.96504 0.580078L 8.47969 0.580078L 8.47969 8.47021L 7.46455 8.47021L 7.46455 3.81348C 7.46455 3.65234 7.46813 3.38558 7.47529 3.01318C 7.48245 2.64079 7.48603 2.24154 7.48603 1.81543L 5.23555 8.47021L 4.17744 8.47021L 1.91084 1.81543L 1.91084 2.05713C 1.91084 2.25049 1.91442 2.5459 1.92158 2.94336C 1.93232 3.33724 1.93769 3.62728 1.93769 3.81348L 1.93769 8.47021L 0.917187 8.47021L 0.917187 0.580078ZM 12.9173 0.580078L 12.9173 5.45703C 12.9173 6.02995 13.0247 6.50618 13.2395 6.88574C 13.5582 7.45866 14.0953 7.74512 14.8509 7.74512C 15.7568 7.74512 16.3727 7.43538 16.6985 6.81592C 16.874 6.47933 16.9617 6.02637 16.9617 5.45703L 16.9617 0.580078L 18.0467 0.580078L 18.0467 5.01123C 18.0467 5.98161 17.916 6.72819 17.6546 7.25098C 17.1748 8.20345 16.2688 8.67969 14.9368 8.67969C 13.6048 8.67969 12.7006 8.20345 12.2244 7.25098C 11.963 6.72819 11.8323 5.98161 11.8323 5.01123L 11.8323 0.580078L 12.9173 0.580078ZM 22.0492 5.92432C 22.0743 6.37191 22.1799 6.73535 22.3661 7.01465C 22.7206 7.53743 23.3454 7.79883 24.2406 7.79883C 24.6417 7.79883 25.0069 7.74154 25.3363 7.62695C 25.9737 7.40495 26.2924 7.00749 26.2924 6.43457C 26.2924 6.00488 26.1581 5.69873 25.8895 5.51611C 25.6174 5.33708 25.1913 5.18132 24.6112 5.04883L 23.5424 4.80713C 22.8441 4.64958 22.35 4.47591 22.06 4.28613C 21.5587 3.95671 21.308 3.46436 21.308 2.80908C 21.308 2.1001 21.5533 1.51823 22.0438 1.06348C 22.5344 0.608724 23.2291 0.381348 24.1278 0.381348C 24.955 0.381348 25.6568 0.581869 26.2333 0.98291C 26.8134 1.38037 27.1034 2.01774 27.1034 2.89502L 26.099 2.89502C 26.0453 2.47249 25.9307 2.14844 25.7553 1.92285C 25.4294 1.51107 24.8762 1.30518 24.0956 1.30518C 23.4654 1.30518 23.0124 1.43766 22.7367 1.70264C 22.461 1.96761 22.3231 2.27555 22.3231 2.62646C 22.3231 3.01318 22.4843 3.29606 22.8065 3.4751C 23.0178 3.58968 23.4958 3.73291 24.2406 3.90479L 25.3471 4.15723C 25.8806 4.27897 26.2924 4.44548 26.5824 4.65674C 27.0837 5.02555 27.3344 5.56087 27.3344 6.2627C 27.3344 7.13639 27.0157 7.76123 26.3783 8.13721C 25.7445 8.51318 25.0069 8.70117 24.1654 8.70117C 23.1843 8.70117 22.4162 8.45052 21.8612 7.94922C 21.3062 7.4515 21.0341 6.77653 21.0448 5.92432L 22.0492 5.92432ZM 30.4399 0.580078L 36.1924 0.580078L 36.1924 1.54688L 31.4819 1.54688L 31.4819 3.94238L 35.8379 3.94238L 35.8379 4.85547L 31.4819 4.85547L 31.4819 7.53027L 36.2729 7.53027L 36.2729 8.47021L 30.4399 8.47021L 30.4399 0.580078ZM 40.485 0.580078L 40.485 5.45703C 40.485 6.02995 40.5924 6.50618 40.8072 6.88574C 41.1259 7.45866 41.663 7.74512 42.4186 7.74512C 43.3245 7.74512 43.9404 7.43538 44.2662 6.81592C 44.4417 6.47933 44.5294 6.02637 44.5294 5.45703L 44.5294 0.580078L 45.6144 0.580078L 45.6144 5.01123C 45.6144 5.98161 45.4837 6.72819 45.2223 7.25098C 44.7424 8.20345 43.8365 8.67969 42.5045 8.67969C 41.1725 8.67969 40.2683 8.20345 39.7921 7.25098C 39.5307 6.72819 39.4 5.98161 39.4 5.01123L 39.4 0.580078L 40.485 0.580078ZM 48.8918 0.580078L 50.4226 0.580078L 52.6892 7.25098L 54.9396 0.580078L 56.4543 0.580078L 56.4543 8.47021L 55.4392 8.47021L 55.4392 3.81348C 55.4392 3.65234 55.4427 3.38558 55.4499 3.01318C 55.4571 2.64079 55.4606 2.24154 55.4606 1.81543L 53.2102 8.47021L 52.1521 8.47021L 49.8854 1.81543L 49.8854 2.05713C 49.8854 2.25049 49.889 2.5459 49.8962 2.94336C 49.9069 3.33724 49.9123 3.62728 49.9123 3.81348L 49.9123 8.47021L 48.8918 8.47021L 48.8918 0.580078Z"/>
<path id="path20_fill" d="M 20.1229 4.19482C 20.6242 4.19482 21.0199 4.09456 21.3099 3.89404C 21.6035 3.69352 21.7503 3.33187 21.7503 2.80908C 21.7503 2.24691 21.5462 1.86377 21.138 1.65967C 20.9196 1.55225 20.6278 1.49854 20.2626 1.49854L 17.6522 1.49854L 17.6522 4.19482L 20.1229 4.19482ZM 16.5834 0.580078L 20.2357 0.580078C 20.8373 0.580078 21.3332 0.667806 21.7235 0.843262C 22.4647 1.17985 22.8353 1.80111 22.8353 2.70703C 22.8353 3.17969 22.7368 3.56641 22.5399 3.86719C 22.3465 4.16797 22.0744 4.40967 21.7235 4.59229C 22.0314 4.71761 22.2624 4.88232 22.4164 5.08643C 22.5739 5.29053 22.6616 5.62174 22.6795 6.08008L 22.7171 7.13818C 22.7279 7.43896 22.7529 7.66276 22.7923 7.80957C 22.8568 8.06022 22.9714 8.22135 23.1361 8.29297L 23.1361 8.47021L 21.8255 8.47021C 21.7897 8.40218 21.7611 8.31445 21.7396 8.20703C 21.7181 8.09961 21.7002 7.89193 21.6859 7.58398L 21.6214 6.26807C 21.5964 5.75244 21.4048 5.4069 21.0467 5.23145C 20.8426 5.13477 20.5222 5.08643 20.0853 5.08643L 17.6522 5.08643L 17.6522 8.47021L 16.5834 8.47021L 16.5834 0.580078ZM 26.1503 0.580078L 31.9028 0.580078L 31.9028 1.54688L 27.1923 1.54688L 27.1923 3.94238L 31.5483 3.94238L 31.5483 4.85547L 27.1923 4.85547L 27.1923 7.53027L 31.9834 7.53027L 31.9834 8.47021L 26.1503 8.47021L 26.1503 0.580078ZM 35.0352 0.580078L 36.1041 0.580078L 36.1041 7.53027L 40.1001 7.53027L 40.1001 8.47021L 35.0352 8.47021L 35.0352 0.580078ZM 43.0446 0.580078L 44.1242 0.580078L 44.1242 8.47021L 43.0446 8.47021L 43.0446 0.580078ZM 50.9197 0.375977C 51.6609 0.375977 52.3018 0.519206 52.8425 0.805664C 53.6267 1.21745 54.1065 1.93896 54.282 2.97021L 53.2239 2.97021C 53.095 2.39372 52.8282 1.97477 52.4236 1.71338C 52.019 1.4484 51.5087 1.31592 50.8928 1.31592C 50.1624 1.31592 49.5465 1.58984 49.0452 2.1377C 48.5474 2.68555 48.2986 3.50195 48.2986 4.58691C 48.2986 5.52507 48.5045 6.28955 48.9163 6.88037C 49.328 7.46761 49.9994 7.76123 50.9304 7.76123C 51.643 7.76123 52.232 7.55534 52.6975 7.14355C 53.1666 6.72819 53.4065 6.05859 53.4172 5.13477L 50.9465 5.13477L 50.9465 4.24854L 54.4109 4.24854L 54.4109 8.47021L 53.7234 8.47021L 53.4656 7.45508C 53.1039 7.85254 52.7834 8.12826 52.5042 8.28223C 52.0351 8.5472 51.4389 8.67969 50.7156 8.67969C 49.781 8.67969 48.9771 8.37712 48.304 7.77197C 47.5699 7.01286 47.2029 5.97087 47.2029 4.646C 47.2029 3.32471 47.561 2.27376 48.2771 1.49316C 48.9574 0.748373 49.8383 0.375977 50.9197 0.375977ZM 57.9569 0.580078L 59.0365 0.580078L 59.0365 8.47021L 57.9569 8.47021L 57.9569 0.580078ZM 65.8266 0.365234C 67.2195 0.365234 68.2508 0.812826 68.9204 1.70801C 69.4432 2.40625 69.7045 3.29964 69.7045 4.38818C 69.7045 5.56624 69.4056 6.54557 68.8076 7.32617C 68.1057 8.24284 67.1049 8.70117 65.8051 8.70117C 64.5913 8.70117 63.637 8.30013 62.9423 7.49805C 62.3229 6.72461 62.0131 5.74707 62.0131 4.56543C 62.0131 3.49837 62.2781 2.58529 62.8081 1.82617C 63.4884 0.852213 64.4946 0.365234 65.8266 0.365234ZM 65.934 7.74512C 66.8758 7.74512 67.5561 7.40853 67.9751 6.73535C 68.3976 6.05859 68.6088 5.28158 68.6088 4.4043C 68.6088 3.47689 68.3654 2.73031 67.8784 2.16455C 67.395 1.5988 66.7325 1.31592 65.8911 1.31592C 65.0747 1.31592 64.4086 1.59701 63.893 2.15918C 63.3774 2.71777 63.1196 3.54313 63.1196 4.63525C 63.1196 5.50895 63.3398 6.24658 63.7802 6.84814C 64.2242 7.44613 64.9422 7.74512 65.934 7.74512ZM 72.6275 0.580078L 73.8897 0.580078L 77.8751 6.97168L 77.8751 0.580078L 78.8902 0.580078L 78.8902 8.47021L 77.6924 8.47021L 73.648 2.08398L 73.648 8.47021L 72.6275 8.47021L 72.6275 0.580078ZM 1.48574 11.5801L 2.56533 11.5801L 2.56533 19.4702L 1.48574 19.4702L 1.48574 11.5801ZM 5.95019 11.5801L 7.2124 11.5801L 11.1978 17.9717L 11.1978 11.5801L 12.2129 11.5801L 12.2129 19.4702L 11.0151 19.4702L 6.9707 13.084L 6.9707 19.4702L 5.95019 19.4702L 5.95019 11.5801ZM 16.2423 16.9243C 16.2673 17.3719 16.373 17.7354 16.5592 18.0146C 16.9137 18.5374 17.5385 18.7988 18.4337 18.7988C 18.8347 18.7988 19.2 18.7415 19.5294 18.627C 20.1668 18.4049 20.4854 18.0075 20.4854 17.4346C 20.4854 17.0049 20.3512 16.6987 20.0826 16.5161C 19.8105 16.3371 19.3844 16.1813 18.8043 16.0488L 17.7354 15.8071C 17.0372 15.6496 16.5431 15.4759 16.253 15.2861C 15.7517 14.9567 15.5011 14.4644 15.5011 13.8091C 15.5011 13.1001 15.7464 12.5182 16.2369 12.0635C 16.7275 11.6087 17.4221 11.3813 18.3209 11.3813C 19.148 11.3813 19.8499 11.5819 20.4264 11.9829C 21.0064 12.3804 21.2965 13.0177 21.2965 13.895L 20.2921 13.895C 20.2384 13.4725 20.1238 13.1484 19.9483 12.9229C 19.6225 12.5111 19.0693 12.3052 18.2887 12.3052C 17.6585 12.3052 17.2055 12.4377 16.9298 12.7026C 16.6541 12.9676 16.5162 13.2756 16.5162 13.6265C 16.5162 14.0132 16.6773 14.2961 16.9996 14.4751C 17.2109 14.5897 17.6889 14.7329 18.4337 14.9048L 19.5401 15.1572C 20.0737 15.279 20.4854 15.4455 20.7755 15.6567C 21.2768 16.0256 21.5274 16.5609 21.5274 17.2627C 21.5274 18.1364 21.2088 18.7612 20.5714 19.1372C 19.9376 19.5132 19.2 19.7012 18.3585 19.7012C 17.3774 19.7012 16.6093 19.4505 16.0543 18.9492C 15.4993 18.4515 15.2271 17.7765 15.2379 16.9243L 16.2423 16.9243ZM 30.2727 11.5801L 30.2727 12.52L 27.614 12.52L 27.614 19.4702L 26.529 19.4702L 26.529 12.52L 23.8703 12.52L 23.8703 11.5801L 30.2727 11.5801ZM 33.1419 11.5801L 34.2215 11.5801L 34.2215 19.4702L 33.1419 19.4702L 33.1419 11.5801ZM 43.348 11.5801L 43.348 12.52L 40.6894 12.52L 40.6894 19.4702L 39.6044 19.4702L 39.6044 12.52L 36.9457 12.52L 36.9457 11.5801L 43.348 11.5801ZM 47.1357 11.5801L 47.1357 16.457C 47.1357 17.0299 47.2432 17.5062 47.458 17.8857C 47.7767 18.4587 48.3138 18.7451 49.0693 18.7451C 49.9753 18.7451 50.5911 18.4354 50.917 17.8159C 51.0924 17.4793 51.1802 17.0264 51.1802 16.457L 51.1802 11.5801L 52.2651 11.5801L 52.2651 16.0112C 52.2651 16.9816 52.1344 17.7282 51.873 18.251C 51.3932 19.2035 50.4873 19.6797 49.1553 19.6797C 47.8232 19.6797 46.9191 19.2035 46.4429 18.251C 46.1815 17.7282 46.0508 16.9816 46.0508 16.0112L 46.0508 11.5801L 47.1357 11.5801ZM 61.3111 11.5801L 61.3111 12.52L 58.6524 12.52L 58.6524 19.4702L 57.5675 19.4702L 57.5675 12.52L 54.9088 12.52L 54.9088 11.5801L 61.3111 11.5801ZM 64.1804 11.5801L 65.26 11.5801L 65.26 19.4702L 64.1804 19.4702L 64.1804 11.5801ZM 72.0501 11.3652C 73.443 11.3652 74.4742 11.8128 75.1438 12.708C 75.6666 13.4062 75.928 14.2996 75.928 15.3882C 75.928 16.5662 75.629 17.5456 75.0311 18.3262C 74.3292 19.2428 73.3284 19.7012 72.0286 19.7012C 70.8147 19.7012 69.8605 19.3001 69.1658 18.498C 68.5464 17.7246 68.2366 16.7471 68.2366 15.5654C 68.2366 14.4984 68.5016 13.5853 69.0315 12.8262C 69.7119 11.8522 70.7181 11.3652 72.0501 11.3652ZM 72.1575 18.7451C 73.0992 18.7451 73.7796 18.4085 74.1985 17.7354C 74.6211 17.0586 74.8323 16.2816 74.8323 15.4043C 74.8323 14.4769 74.5888 13.7303 74.1019 13.1646C 73.6185 12.5988 72.956 12.3159 72.1145 12.3159C 71.2981 12.3159 70.6321 12.597 70.1165 13.1592C 69.6009 13.7178 69.3431 14.5431 69.3431 15.6353C 69.3431 16.509 69.5633 17.2466 70.0037 17.8481C 70.4477 18.4461 71.1657 18.7451 72.1575 18.7451ZM 78.851 11.5801L 80.1132 11.5801L 84.0985 17.9717L 84.0985 11.5801L 85.1137 11.5801L 85.1137 19.4702L 83.9159 19.4702L 79.8715 13.084L 79.8715 19.4702L 78.851 19.4702L 78.851 11.5801ZM 89.1431 16.9243C 89.1681 17.3719 89.2738 17.7354 89.46 18.0146C 89.8145 18.5374 90.4393 18.7988 91.3345 18.7988C 91.7355 18.7988 92.1007 18.7415 92.4302 18.627C 93.0675 18.4049 93.3862 18.0075 93.3862 17.4346C 93.3862 17.0049 93.252 16.6987 92.9834 16.5161C 92.7113 16.3371 92.2852 16.1813 91.7051 16.0488L 90.6362 15.8071C 89.938 15.6496 89.4438 15.4759 89.1538 15.2861C 88.6525 14.9567 88.4019 14.4644 88.4019 13.8091C 88.4019 13.1001 88.6471 12.5182 89.1377 12.0635C 89.6283 11.6087 90.3229 11.3813 91.2217 11.3813C 92.0488 11.3813 92.7507 11.5819 93.3271 11.9829C 93.9072 12.3804 94.1973 13.0177 94.1973 13.895L 93.1929 13.895C 93.1392 13.4725 93.0246 13.1484 92.8491 12.9229C 92.5233 12.5111 91.9701 12.3052 91.1895 12.3052C 90.5592 12.3052 90.1063 12.4377 89.8306 12.7026C 89.5549 12.9676 89.417 13.2756 89.417 13.6265C 89.417 14.0132 89.5781 14.2961 89.9004 14.4751C 90.1117 14.5897 90.5897 14.7329 91.3345 14.9048L 92.4409 15.1572C 92.9744 15.279 93.3862 15.4455 93.6763 15.6567C 94.1776 16.0256 94.4282 16.5609 94.4282 17.2627C 94.4282 18.1364 94.1095 18.7612 93.4722 19.1372C 92.8384 19.5132 92.1007 19.7012 91.2593 19.7012C 90.2782 19.7012 89.5101 19.4505 88.9551 18.9492C 88.4001 18.4515 88.1279 17.7765 88.1387 16.9243L 89.1431 16.9243Z"/>
<path id="path21_fill" d="M 1.90269 5.92432C 1.92775 6.37191 2.03338 6.73535 2.21958 7.01465C 2.57407 7.53743 3.19891 7.79883 4.09409 7.79883C 4.49514 7.79883 4.86037 7.74154 5.1898 7.62695C 5.82717 7.40495 6.14585 7.00749 6.14585 6.43457C 6.14585 6.00488 6.01157 5.69873 5.74302 5.51611C 5.47088 5.33708 5.04478 5.18132 4.4647 5.04883L 3.39585 4.80713C 2.69761 4.64958 2.20347 4.47591 1.91343 4.28613C 1.41213 3.95671 1.16148 3.46436 1.16148 2.80908C 1.16148 2.1001 1.40676 1.51823 1.89732 1.06348C 2.38788 0.608724 3.08254 0.381348 3.9813 0.381348C 4.80845 0.381348 5.51027 0.581869 6.08677 0.98291C 6.66685 1.38037 6.95689 2.01774 6.95689 2.89502L 5.95249 2.89502C 5.89878 2.47249 5.7842 2.14844 5.60874 1.92285C 5.2829 1.51107 4.72967 1.30518 3.94907 1.30518C 3.31887 1.30518 2.8659 1.43766 2.59019 1.70264C 2.31447 1.96761 2.17661 2.27555 2.17661 2.62646C 2.17661 3.01318 2.33775 3.29606 2.66001 3.4751C 2.87127 3.58968 3.3493 3.73291 4.09409 3.90479L 5.20054 4.15723C 5.73407 4.27897 6.14585 4.44548 6.43589 4.65674C 6.93719 5.02555 7.18784 5.56087 7.18784 6.2627C 7.18784 7.13639 6.86916 7.76123 6.23179 8.13721C 5.598 8.51318 4.86037 8.70117 4.0189 8.70117C 3.03778 8.70117 2.26971 8.45052 1.7147 7.94922C 1.15969 7.4515 0.88755 6.77653 0.898293 5.92432L 1.90269 5.92432ZM 10.2182 0.580078L 11.2978 0.580078L 11.2978 3.84033L 15.4013 3.84033L 15.4013 0.580078L 16.4809 0.580078L 16.4809 8.47021L 15.4013 8.47021L 15.4013 4.78027L 11.2978 4.78027L 11.2978 8.47021L 10.2182 8.47021L 10.2182 0.580078ZM 23.1905 0.365234C 24.5834 0.365234 25.6146 0.812826 26.2842 1.70801C 26.807 2.40625 27.0684 3.29964 27.0684 4.38818C 27.0684 5.56624 26.7694 6.54557 26.1714 7.32617C 25.4696 8.24284 24.4688 8.70117 23.169 8.70117C 21.9551 8.70117 21.0009 8.30013 20.3062 7.49805C 19.6867 6.72461 19.377 5.74707 19.377 4.56543C 19.377 3.49837 19.642 2.58529 20.1719 1.82617C 20.8523 0.852213 21.8584 0.365234 23.1905 0.365234ZM 23.2979 7.74512C 24.2396 7.74512 24.92 7.40853 25.3389 6.73535C 25.7614 6.05859 25.9727 5.28158 25.9727 4.4043C 25.9727 3.47689 25.7292 2.73031 25.2422 2.16455C 24.7588 1.5988 24.0964 1.31592 23.2549 1.31592C 22.4385 1.31592 21.7725 1.59701 21.2569 2.15918C 20.7413 2.71777 20.4834 3.54313 20.4834 4.63525C 20.4834 5.50895 20.7037 6.24658 21.1441 6.84814C 21.5881 7.44613 22.306 7.74512 23.2979 7.74512ZM 30.0934 0.580078L 33.6437 0.580078C 34.3455 0.580078 34.9113 0.778809 35.341 1.17627C 35.7707 1.57015 35.9855 2.12516 35.9855 2.84131C 35.9855 3.45719 35.7939 3.9943 35.4108 4.45264C 35.0277 4.90739 34.4386 5.13477 33.6437 5.13477L 31.1623 5.13477L 31.1623 8.47021L 30.0934 8.47021L 30.0934 0.580078ZM 34.9059 2.84668C 34.9059 2.2666 34.6911 1.87272 34.2614 1.66504C 34.0251 1.55404 33.701 1.49854 33.2892 1.49854L 31.1623 1.49854L 31.1623 4.23242L 33.2892 4.23242C 33.769 4.23242 34.1575 4.13037 34.4547 3.92627C 34.7555 3.72217 34.9059 3.3623 34.9059 2.84668ZM 39.0803 0.580078L 42.6306 0.580078C 43.3324 0.580078 43.8982 0.778809 44.3279 1.17627C 44.7576 1.57015 44.9724 2.12516 44.9724 2.84131C 44.9724 3.45719 44.7808 3.9943 44.3977 4.45264C 44.0146 4.90739 43.4255 5.13477 42.6306 5.13477L 40.1492 5.13477L 40.1492 8.47021L 39.0803 8.47021L 39.0803 0.580078ZM 43.8928 2.84668C 43.8928 2.2666 43.678 1.87272 43.2483 1.66504C 43.012 1.55404 42.6879 1.49854 42.2761 1.49854L 40.1492 1.49854L 40.1492 4.23242L 42.2761 4.23242C 42.7559 4.23242 43.1444 4.13037 43.4417 3.92627C 43.7424 3.72217 43.8928 3.3623 43.8928 2.84668ZM 48.2069 0.580078L 49.2865 0.580078L 49.2865 8.47021L 48.2069 8.47021L 48.2069 0.580078ZM 52.6713 0.580078L 53.9335 0.580078L 57.9189 6.97168L 57.9189 0.580078L 58.934 0.580078L 58.934 8.47021L 57.7363 8.47021L 53.6918 2.08398L 53.6918 8.47021L 52.6713 8.47021L 52.6713 0.580078ZM 65.6758 0.375977C 66.417 0.375977 67.058 0.519206 67.5987 0.805664C 68.3829 1.21745 68.8627 1.93896 69.0381 2.97021L 67.98 2.97021C 67.8511 2.39372 67.5844 1.97477 67.1797 1.71338C 66.7751 1.4484 66.2649 1.31592 65.649 1.31592C 64.9185 1.31592 64.3026 1.58984 63.8013 2.1377C 63.3036 2.68555 63.0547 3.50195 63.0547 4.58691C 63.0547 5.52507 63.2606 6.28955 63.6724 6.88037C 64.0842 7.46761 64.7556 7.76123 65.6866 7.76123C 66.3991 7.76123 66.9882 7.55534 67.4537 7.14355C 67.9227 6.72819 68.1626 6.05859 68.1734 5.13477L 65.7027 5.13477L 65.7027 4.24854L 69.167 4.24854L 69.167 8.47021L 68.4795 8.47021L 68.2217 7.45508C 67.8601 7.85254 67.5396 8.12826 67.2603 8.28223C 66.7912 8.5472 66.195 8.67969 65.4717 8.67969C 64.5372 8.67969 63.7333 8.37712 63.0601 7.77197C 62.3261 7.01286 61.959 5.97087 61.959 4.646C 61.959 3.32471 62.3171 2.27376 63.0333 1.49316C 63.7136 0.748373 64.5945 0.375977 65.6758 0.375977Z"/>
<path id="path22_fill" d="M 35 8.88178e-16L 7 8.88178e-16L 7 27C 7 29.2 8.8 31 11 31L 31 31C 33.2 31 35 29.2 35 27L 35 22C 41.076 22 46 17.075 46 11C 46 4.925 41.076 8.88178e-16 35 8.88178e-16ZM 35 17L 35 5C 38.314 5 41 7.686 41 11C 41 14.313 38.314 17 35 17ZM 0 33L 0 35.301C 0 37.197 2.069 38 4.6 38L 41.4 38C 43.93 38 46 37.197 46 35.301L 46 33L 0 33Z"/>
<path id="path23_fill" d="M 38.922 26.0875C 39.385 26.3145 39.949 26.3105 40.175 26.0765C 40.404 25.8435 40.206 25.4755 39.737 25.2595L 31.559 21.4715C 31.09 21.2535 30.302 21.1985 29.81 21.3465L 26.885 22.2235C 26.388 22.3725 25.74 22.4945 25.446 22.4945C 25.152 22.4945 24.907 22.0805 24.907 21.5725L 24.907 12.6535C 24.907 12.1465 25.33 11.7305 25.848 11.7305L 47.057 11.7305C 47.577 11.7305 47.999 11.3155 47.999 10.8075L 47.999 7.8125C 47.999 7.3045 47.592 6.7705 47.097 6.6255L 24.762 0.108501C 24.267 -0.0364987 23.455 -0.0364987 22.96 0.110501L 0.899 6.6245C 0.405 6.7695 0 7.3055 0 7.8125L 0 10.8065C 0 11.3145 0.423 11.7295 0.94 11.7295L 21.87 11.7295C 22.388 11.7295 22.811 12.1455 22.811 12.6525L 22.811 21.5765C 22.811 22.0835 22.388 22.4995 21.87 22.5005L 21.49 22.5005C 20.972 22.5015 20.246 22.2115 19.874 21.8575L 14.828 17.0385C 14.455 16.6835 13.729 16.3945 13.211 16.3945L 10.877 16.3945C 10.361 16.3945 9.738 16.0895 9.495 15.7185C 9.254 15.3465 8.692 15.0445 8.247 15.0445C 7.802 15.0445 7.665 15.3925 7.945 15.8205L 7.989 15.8875C 8.269 16.3145 8.27 17.0175 7.995 17.4465L 5.471 21.3705C 5.197 21.8015 5.282 22.4315 5.667 22.7725L 5.846 22.9335C 6.231 23.2735 6.917 23.3615 7.376 23.1245L 10.08 21.7175C 10.54 21.4795 11.141 21.6345 11.42 22.0615L 14.387 26.6035C 14.668 27.0315 14.574 27.6515 14.179 27.9795L 12.822 29.1125C 12.427 29.4405 12.197 30.1135 12.311 30.6105L 14.07 38.2625C 14.184 38.7595 14.689 39.0625 15.191 38.9375L 16.414 38.6355C 16.917 38.5095 17.233 38.0035 17.123 37.5075L 15.932 32.3325C 15.818 31.8375 16.133 31.3195 16.634 31.1865L 19.641 30.3805C 20.139 30.2465 20.972 30.1395 21.49 30.1395L 21.87 30.1395C 22.388 30.1395 22.811 30.5545 22.811 31.0595L 22.811 40.2365C 22.811 40.7425 22.388 41.1575 21.87 41.1575L 0.94 41.1575C 0.423 41.1575 7.54952e-15 41.5715 7.54952e-15 42.0815L 7.54952e-15 45.0735C 7.54952e-15 45.5865 0.423 46.0005 0.94 46.0005L 46.668 46.0005C 47.186 46.0005 47.608 45.5865 47.608 45.0755L 47.608 42.0835C 47.608 41.5735 47.185 41.1595 46.668 41.1595L 25.849 41.1595C 25.33 41.1595 24.908 40.7445 24.908 40.2385L 24.908 31.0615C 24.908 30.5565 25.331 30.1415 25.849 30.1415L 26.933 30.1415C 27.451 30.1415 28.278 30.2485 28.781 30.3825L 31.788 31.1885C 32.29 31.3215 32.606 31.8385 32.49 32.3345L 31.302 37.5095C 31.186 38.0055 31.504 38.5115 32.007 38.6375L 33.232 38.9395C 33.735 39.0645 34.236 38.7615 34.352 38.2645L 36.113 30.6125C 36.23 30.1155 36.008 29.4525 35.625 29.1305C 35.243 28.8125 34.906 28.1345 34.876 27.6285L 34.723 24.9215C 34.692 24.4155 35.049 24.1865 35.513 24.4145L 38.922 26.0875L 38.922 26.0875Z"/>
<path id="path24_fill" d="M 20.211 0C 7.579 0 0 10.133 0 15.2C 0 20.267 2.526 24.067 7.579 24.067C 12.632 24.067 15.159 25.333 15.159 29.133C 15.159 34.199 18.948 37.999 24.001 37.999C 40.423 37.999 48.001 29.133 48.001 20.267C 48 5.067 35.366 3.55271e-15 20.211 3.55271e-15L 20.211 0ZM 17.053 5.067C 18.797 5.067 20.211 6.485 20.211 8.233C 20.211 9.983 18.797 11.4 17.053 11.4C 15.309 11.4 13.895 9.982 13.895 8.233C 13.895 6.485 15.309 5.067 17.053 5.067L 17.053 5.067ZM 27.157 5.067C 28.901 5.067 30.315 6.485 30.315 8.233C 30.315 9.983 28.901 11.4 27.157 11.4C 25.414 11.4 24 9.982 24 8.233C 24 6.485 25.414 5.067 27.157 5.067L 27.157 5.067ZM 37.263 10.133C 39.008 10.133 40.422 11.55 40.422 13.3C 40.422 15.05 39.008 16.466 37.263 16.466C 35.519 16.466 34.106 15.049 34.106 13.3C 34.105 11.551 35.519 10.133 37.263 10.133L 37.263 10.133ZM 8.211 12.667C 9.955 12.667 11.368 14.084 11.368 15.832C 11.368 17.582 9.954 18.999 8.211 18.999C 6.468 18.999 5.053 17.581 5.053 15.832C 5.053 14.084 6.467 12.667 8.211 12.667L 8.211 12.667ZM 24 25.333C 26.093 25.333 27.789 27.033 27.789 29.134C 27.789 31.232 26.093 32.933 24 32.933C 21.907 32.933 20.211 31.232 20.211 29.134C 20.211 27.033 21.907 25.333 24 25.333Z"/>
<path id="path25_fill" d="M 24 3.55271e-15C 22.737 3.55271e-15 22.166 0.616 21.79 1.286L 6.08 30.858L 2.685 30.858C 1.203 30.858 0 32.003 0 33.429C 0 34.852 1.203 35.999 2.685 35.999L 45.317 35.999C 46.798 35.999 48.002 34.852 48.002 33.429C 48.002 32.002 46.799 30.858 45.317 30.858L 41.92 30.858L 26.211 1.285C 25.834 0.616 25.264 0 24 0L 24 3.55271e-15ZM 24 12.857L 32.842 30.858L 15.158 30.858L 24 12.857L 24 12.857Z"/>
<path id="path26_fill" d="M 48 21.396L 25 10.516L 25 6L 28 6L 28 4L 25 4L 25 0L 23 0L 23 4L 20 4L 20 6L 23 6L 23 10.516L 6.942 18.121L 0 21.396L 0 23L 7 23L 7 48L 19 48L 19 33L 29 33L 29 48L 41 48L 41 23L 48 23L 48 21.396Z"/>
<path id="path27_fill" d="M 1.743 20.8L 5.228 20.8L 5.228 43.2L 10.457 43.2L 10.457 24L 15.686 24L 15.686 43.2L 20.914 43.2L 20.914 24L 26.144 24L 26.144 43.2L 31.373 43.2L 31.373 20.8L 34.857 20.8C 35.82 20.8 36.601 20.084 36.601 19.2C 36.601 18.666 36.313 18.196 35.874 17.906L 35.877 17.903L 35.851 17.888L 35.806 17.861L 19.171 9.252L 19.171 6.73C 22.243 8.142 24.772 5.71 28.756 7.172L 28.756 1.601C 24.77 0.139 22.242 2.569 19.171 1.158L 19.171 0.8C 19.171 0.357 18.782 0 18.3 0C 17.818 0 17.43 0.357 17.43 0.8L 17.43 9.252L 0.795 17.859L 0.75 17.886L 0.725 17.903L 0.725 17.906C 0.288 18.196 0.001 18.667 0.001 19.2C 0 20.084 0.781 20.8 1.743 20.8L 1.743 20.8ZM 3.485 44.801L 0 48L 36.602 48L 33.115 44.801L 3.485 44.801Z"/>
<path id="path28_fill" d="M 29 8L 29 4.964C 29 2.483 26.891 0 24.411 0L 16.068 0C 13.589 0 11 2.483 11 4.964L 11 8L 5.688 8L 0 43L 40.187 43L 34.409 8L 29 8ZM 14 4.964C 14 4.035 15.14 3 16.068 3L 24.411 3C 25.338 3 26 4.035 26 4.964L 26 8L 14 8L 14 4.964Z"/>
<path id="path29_fill" d="M 47.894 11.231L 43.959 42.077L 30.668 42.077L 26.749 11.077L 42.975 11.077L 46.182 0L 48 0.548L 44.923 11.208L 47.894 11.231L 47.894 11.231ZM 24.87 29.077C 24.87 29.077 25.367 25.077 18.475 25.077L 7.499 25.077C 0.617 25.077 1.104 29.077 1.104 29.077L 24.87 29.077ZM 1.104 38.077C 1.104 38.077 0.617 42.077 7.499 42.077L 18.476 42.077C 25.368 42.077 24.871 38.077 24.871 38.077L 1.104 38.077ZM 23.839 36.077C 24.967 36.077 25.878 34.963 25.878 33.578C 25.878 32.185 24.967 31.077 23.839 31.077L 2.04 31.077C 0.917 31.077 0 32.185 0 33.578C 0 34.963 0.917 36.077 2.04 36.077L 23.839 36.077Z"/>
<path id="path30_fill" d="M 8.27 14L 12.186 14L 12.788 32L 7.749 32L 8.27 14L 8.27 14ZM 5 33L 43 33L 43 35L 46 35L 46 38L 48 38L 48 40L 0 40L 0 38L 2 38L 2 35L 5 35L 5 33ZM 45 8.812L 24.002 0L 3 8.812L 3 10L 45 10L 45 8.812ZM 7 11L 41 11L 41 13L 7 13L 7 11ZM 35.736 14L 39.65 14L 40.257 32L 35.211 32L 35.736 14ZM 26.584 14L 30.498 14L 31.098 32L 26.057 32L 26.584 14L 26.584 14ZM 17.43 14L 21.345 14L 21.941 32L 16.902 32L 17.43 14L 17.43 14Z"/>
<path id="path31_fill" d="M 18.3699 1.96077L 8.43808 1.96077C 7.64922 0.915581 6.35651 0 4.89426 0C 2.49201 0 0.544798 1.86879 0.544798 4.26069C 0.544798 6.65312 2.49201 8.46077 4.89426 8.46077C 6.72128 8.46077 8.28429 7.18669 8.92934 5.61891L 10.3753 5.61891L 11.4234 4.57477L 12.4711 5.61891L 13.1245 5.61891L 14.1721 4.57477L 15.2202 5.61891L 15.8732 5.61891L 16.9213 4.57477L 17.9694 5.61891L 18.3699 5.61891L 18.3699 5.76576L 18.2786 5.78718L 20.3465 3.76893L 18.3699 1.96077ZM 3.4866 5.4151C 2.7917 5.4151 2.22748 4.85331 2.22748 4.16036C 2.22748 3.4674 2.7917 2.90613 3.4866 2.90613C 4.18256 2.90613 4.74678 3.4674 4.74678 4.16036C 4.74678 4.85331 4.18256 5.4151 3.4866 5.4151ZM 19.4196 15.5482L 19.1293 15.5482L 15.9046 9.73432C 15.7656 9.48296 15.415 9.27705 15.1263 9.27705L 5.34301 9.27705C 5.05434 9.27705 4.70374 9.48296 4.56465 9.73432L 1.33943 15.5482L 1.04971 15.5482C 0.472368 15.5482 0 16.0185 0 16.5933L 0 21.8193C 0 22.3941 0.472368 22.8644 1.04971 22.8644L 2.09942 22.8644L 2.09942 24.4322C 2.09942 25.2945 2.80797 26 3.67398 26L 4.19883 26C 5.06484 26 5.77339 25.2945 5.77339 24.4322L 5.77339 22.8644L 14.6959 22.8644L 14.6959 24.4322C 14.6959 25.2945 15.4045 26 16.2705 26L 16.7953 26C 17.6613 26 18.3699 25.2945 18.3699 24.4322L 18.3699 22.8644L 19.4196 22.8644C 19.9969 22.8644 20.4693 22.3941 20.4693 21.8193L 20.4693 16.5933C 20.4693 16.0185 19.9969 15.5482 19.4196 15.5482ZM 2.8867 19.7289C 2.16187 19.7289 1.57456 19.1441 1.57456 18.4224C 1.57456 17.7007 2.16187 17.1159 2.8867 17.1159C 3.61152 17.1159 4.19883 17.7007 4.19883 18.4224C 4.19883 19.1441 3.61152 19.7289 2.8867 19.7289ZM 3.9364 15.5482L 6.06364 11.3126C 6.19275 11.0549 6.53443 10.8448 6.8231 10.8448L 13.6462 10.8448C 13.9349 10.8448 14.2765 11.0549 14.4057 11.3126L 16.5329 15.5482L 3.9364 15.5482ZM 17.5826 19.7289C 16.8578 19.7289 16.2705 19.1441 16.2705 18.4224C 16.2705 17.7007 16.8578 17.1159 17.5826 17.1159C 18.3074 17.1159 18.8947 17.7007 18.8947 18.4224C 18.8947 19.1441 18.3074 19.7289 17.5826 19.7289Z"/>
<path id="path32_fill" d="M 14.3721 19.235L 14.3128 19.1222L 14.3427 19.0798L 14.3726 19.0375C 14.9242 18.8107 15.4254 18.5301 15.8742 18.1993C 16.3224 17.8648 16.6226 17.3767 16.7775 16.7313L 16.8903 16.215L 16.8903 2.87791C 16.8903 2.556 16.7937 2.22206 16.6032 1.88238C 16.4127 1.53694 16.1749 1.22809 15.8868 0.953731C 15.6018 0.681983 15.2843 0.45152 14.9295 0.268612C 14.5747 0.0888407 14.2367 0 13.9118 0L 4.32532 0C 4.01933 0 3.6892 0.0836147 3.33597 0.254502C 2.98169 0.425913 2.65681 0.644879 2.36289 0.911401C 2.06792 1.17531 1.82387 1.4758 1.63334 1.8066C 1.4423 2.14367 1.34625 2.46872 1.34625 2.7943L 1.34625 16.33C 1.34625 16.5578 1.40661 16.7956 1.51788 17.0422C 1.63334 17.29 1.7761 17.5215 1.94721 17.7378C 2.11831 17.9604 2.30673 18.1596 2.50723 18.3388C 2.70772 18.518 2.90244 18.6665 3.09401 18.7799C 3.18639 18.8185 3.35591 18.8781 3.5963 18.9539C 3.83143 19.0291 3.94165 19.0851 3.92381 19.1216L 0 25.051L 2.28889 25.051L 5.15301 20.9178L 13.0547 20.9178L 15.9157 25.051L 18.2345 25.051L 14.3721 19.235L 14.3721 19.235ZM 6.84199 1.13873C 6.84199 1.04309 6.88765 0.945369 6.98528 0.838238C 7.07923 0.734242 7.17423 0.684073 7.27132 0.684073L 10.9359 0.684073C 10.9726 0.684073 11.0518 0.720654 11.1657 0.795385C 11.2786 0.871684 11.3358 0.947459 11.3358 1.02324L 11.3358 2.4196C 11.3358 2.51524 11.2875 2.60303 11.1936 2.67567C 11.097 2.75406 11.0099 2.79378 10.9364 2.79378L 7.24403 2.79378L 7.12751 2.70337C 7.0724 2.66679 7.00837 2.61662 6.94224 2.54607C 6.87506 2.48231 6.84199 2.41228 6.84199 2.33651L 6.84199 1.13873L 6.84199 1.13873ZM 3.1486 5.04354C 3.1486 4.85383 3.19373 4.66779 3.27824 4.48645C 3.36326 4.30616 3.47401 4.14154 3.60732 3.98738C 3.74168 3.83478 3.89914 3.71511 4.07864 3.61947C 4.26129 3.52332 4.44866 3.47628 4.63918 3.47628L 13.5423 3.47628C 13.7113 3.47628 13.8834 3.516 14.0551 3.58812C 14.2272 3.66442 14.3841 3.77102 14.5285 3.90272C 14.6723 4.03441 14.7851 4.18074 14.8723 4.33229C 14.9573 4.4807 14.9993 4.64375 14.9993 4.81464L 14.9993 7.83679C 14.9993 8.0082 14.9531 8.1702 14.8576 8.33325C 14.762 8.49891 14.6382 8.6421 14.4854 8.76544C 14.3306 8.88668 14.1716 8.98702 13.9984 9.06018C 13.8273 9.14118 13.6551 9.17515 13.4845 9.17515L 4.69639 9.17515L 4.55153 9.14954C 4.47595 9.12968 4.41717 9.11087 4.37885 9.09049C 4.05607 9.03509 3.77055 8.86316 3.52177 8.5773C 3.27299 8.29197 3.1486 7.97946 3.1486 7.63821L 3.1486 5.04354L 3.1486 5.04354ZM 5.79858 16.8154C 5.50309 17.1191 5.13307 17.2706 4.69639 17.2706C 4.25709 17.2706 3.89861 17.1191 3.62044 16.8154C 3.34437 16.5123 3.20633 16.1392 3.20633 15.7018C 3.20633 15.3031 3.35014 14.9576 3.63724 14.6639C 3.92276 14.3687 4.27598 14.2192 4.69639 14.2192C 5.13307 14.2192 5.50257 14.3603 5.79858 14.6315C 6.0946 14.9101 6.24208 15.2722 6.24208 15.7316C 6.24208 16.1502 6.0946 16.5123 5.79858 16.8154ZM 12.3535 16.8154C 12.0585 16.5123 11.9084 16.1392 11.9084 15.7018C 11.9084 15.2639 12.0653 14.9101 12.3808 14.6315C 12.6967 14.3598 13.0636 14.2192 13.4851 14.2192C 13.9207 14.2192 14.2807 14.3681 14.5573 14.6639C 14.8329 14.9576 14.9736 15.3036 14.9736 15.7018C 14.9736 16.1392 14.8292 16.5123 14.5432 16.8154C 14.255 17.1191 13.8945 17.2706 13.4536 17.2706C 13.0158 17.2706 12.6484 17.1191 12.3535 16.8154L 12.3535 16.8154Z"/>
<path id="path33_fill" d="M 7.61976 4.79191C 7.40981 6.51646 7.04242 8.1365 7.61976 9.86105C 8.61698 12.683 9.35177 15.6096 10.1915 18.4838C 10.244 18.7451 10.349 18.9542 10.4015 19.2155C 10.5589 20.1039 10.1915 20.7832 9.45674 20.9923C 8.72195 21.2013 8.03964 20.7832 7.77721 19.8948C 7.14739 17.8045 6.51756 15.6618 5.88774 13.5715C 5.78277 13.2056 5.62531 12.7876 5.41537 12.4218C 5.3104 15.2438 3.68336 17.5432 2.68613 19.9993C 2.31874 20.8355 1.58394 21.149 0.901632 20.8877C 0.166837 20.5742 -0.148075 19.7903 0.219322 18.9542C 0.376778 18.4838 0.586719 18.0657 0.796661 17.6477C 2.10879 15.4005 2.58116 12.8921 2.7911 10.3314C 2.94856 8.55457 3.21099 6.7255 3.42093 4.94869C 3.42093 4.79191 3.42093 4.63513 3.42093 4.4261C 2.58116 5.05321 2.00382 5.62806 2.05631 6.67324C 2.05631 7.45713 1.89885 8.29328 1.79388 9.07716C 1.68891 9.65202 1.374 10.0701 0.744175 9.91331C 0.114351 9.80879 -0.0431048 9.33846 0.00938056 8.76361C 0.166837 7.61391 0.219322 6.4642 0.429263 5.3145C 0.481749 4.89643 0.69169 4.4261 1.0066 4.11254C 2.05631 2.96284 3.1585 1.86539 4.26069 0.767951C 5.41537 -0.381752 6.77999 -0.224974 7.72473 1.13377C 7.88218 1.39506 8.09212 1.65636 8.24958 1.96991C 9.2468 3.9035 10.5589 5.41902 12.6584 6.25517C 13.2882 6.51646 13.7605 6.93454 13.3407 7.66617C 12.9208 8.34554 12.3434 8.1365 11.8186 7.82294C 10.9788 7.35261 10.1391 6.9868 9.35177 6.4642C 8.66946 6.04613 8.1971 5.41902 7.61976 4.79191Z"/>
<path id="path34_fill" d="M 3.98888 2.03811C 3.98888 3.18781 3.09663 4.07622 1.99444 4.07622C 0.892249 4.07622 4.66162e-16 3.13555 4.66162e-16 2.03811C 4.66162e-16 0.888406 0.892249 0 1.99444 0C 3.14911 0 3.98888 0.888406 3.98888 2.03811Z"/>
</defs>
</svg>
