<?xml version="1.0" encoding="utf-8"?>
<!-- Generator: Adobe Illustrator 19.2.1, SVG Export Plug-In . SVG Version: 6.00 Build 0)  -->
<!DOCTYPE svg PUBLIC "-//W3C//DTD SVG 1.1//EN" "http://www.w3.org/Graphics/SVG/1.1/DTD/svg11.dtd">
<svg version="1.1" id="Layer_1" xmlns="http://www.w3.org/2000/svg" xmlns:xlink="http://www.w3.org/1999/xlink" x="0px" y="0px"
	 viewBox="0 0 50 50" style="enable-background:new 0 0 50 50;" xml:space="preserve">
<style type="text/css">
	.st0{fill:#E6E6E6;}
</style>
<path class="st0" d="M25,27.4c-5.4,0-10,1.6-13,4V36h26v-4.6C35,29,30.4,27.4,25,27.4z M48.9,25L24.9,14L1,25l4,1.8v2.8
	c-1,0.2-1,0.7-1,1.4c0,0.4,0.1,0.8,0.4,1.1L3,35h4.9l-1.4-2.9c0.2-0.3,0.4-0.6,0.4-1c0-0.6-0.9-1.2-0.9-1.4v-2.3l5,2.2v-0.2
	c3-2.6,8.3-4.3,14-4.3c5.7,0,11,1.7,14,4.3v0.2C39,29.6,48.9,25,48.9,25z"/>
</svg>
