<?xml version="1.0" encoding="utf-8"?>
<!-- Generator: Adobe Illustrator 19.2.1, SVG Export Plug-In . SVG Version: 6.00 Build 0)  -->
<!DOCTYPE svg PUBLIC "-//W3C//DTD SVG 1.1//EN" "http://www.w3.org/Graphics/SVG/1.1/DTD/svg11.dtd">
<svg version="1.1" id="Layer_1" xmlns="http://www.w3.org/2000/svg" xmlns:xlink="http://www.w3.org/1999/xlink" x="0px" y="0px"
	 viewBox="0 0 25.2 50" style="enable-background:new 0 0 25.2 50;" xml:space="preserve">
<style type="text/css">
	.st0{fill:#E6E6E6;}
</style>
<g>
	<path class="st0" d="M14.5,17.9c-0.4,3.3-1.1,6.4,0,9.7c1.9,5.4,3.3,11,4.9,16.5c0.1,0.5,0.3,0.9,0.4,1.4c0.3,1.7-0.4,3-1.8,3.4
		s-2.7-0.4-3.2-2.1c-1.2-4-2.4-8.1-3.6-12.1c-0.2-0.7-0.5-1.5-0.9-2.2C10.1,37.9,7,42.3,5.1,47c-0.7,1.6-2.1,2.2-3.4,1.7
		c-1.4-0.6-2-2.1-1.3-3.7c0.3-0.9,0.7-1.7,1.1-2.5c2.5-4.3,3.4-9.1,3.8-14c0.3-3.4,0.8-6.9,1.2-10.3c0-0.3,0-0.6,0-1
		c-1.6,1.2-2.7,2.3-2.6,4.3c0,1.5-0.3,3.1-0.5,4.6c-0.2,1.1-0.8,1.9-2,1.6c-1.2-0.2-1.5-1.1-1.4-2.2c0.3-2.2,0.4-4.4,0.8-6.6
		c0.1-0.8,0.5-1.7,1.1-2.3c2-2.2,4.1-4.3,6.2-6.4c2.2-2.2,4.8-1.9,6.6,0.7c0.3,0.5,0.7,1,1,1.6c1.9,3.7,4.4,6.6,8.4,8.2
		c1.2,0.5,2.1,1.3,1.3,2.7c-0.8,1.3-1.9,0.9-2.9,0.3c-1.6-0.9-3.2-1.6-4.7-2.6C16.5,20.3,15.6,19.1,14.5,17.9z"/>
	<path class="st0" d="M15.2,3.9c0,2.2-1.7,3.9-3.8,3.9S7.6,6,7.6,3.9C7.6,1.7,9.3,0,11.4,0C13.6,0,15.2,1.7,15.2,3.9z"/>
</g>
</svg>
