<?xml version="1.0" encoding="utf-8"?>
<!-- Generator: Adobe Illustrator 19.2.1, SVG Export Plug-In . SVG Version: 6.00 Build 0)  -->
<!DOCTYPE svg PUBLIC "-//W3C//DTD SVG 1.1//EN" "http://www.w3.org/Graphics/SVG/1.1/DTD/svg11.dtd">
<svg version="1.1" id="Layer_1" xmlns="http://www.w3.org/2000/svg" xmlns:xlink="http://www.w3.org/1999/xlink" x="0px" y="0px"
	 viewBox="0 0 50 50" style="enable-background:new 0 0 50 50;" xml:space="preserve">
<style type="text/css">
	.st0{fill:#E6E6E6;}
</style>
<path class="st0" d="M45.9,28.9l-0.1-0.3c-0.3-0.9-0.8-2.1-1.8-2.7c-0.8-0.5-1.6-0.6-2.4-0.7c-0.4-0.1-0.8-0.1-1.1-0.2l-0.3-0.1l0,0
	c-3.1-2.5-9.4-2.6-13.3-6.1C21.2,13.7,16.7,8.6,11.6,1L5.3,6.1C4.8,6.4,4,6.7,4,8c0,0.6,0.6,0.7,1.4,0.5L9,7.3l10,13.9v7.6
	c0,1.8,0,3.4,1.5,4.3L16.7,49h2.5l2.4-7.5l2.4-3.7V49h3V36.5c0,0,0-2.5,2.5-2.5l2.5,2.5V49h2V39l5.5,10h2.5c-1.3-4-3.1-3.6-3.1-7.4
	V39c0-2.7,3-5.1,3-7.6v-2.5c0-0.6-0.1-1.1-0.2-1.6c0.4,0.1,0.8,0.2,1.2,0.4c0.5,0.3,0.7,1,1,1.7l0.1,0.3c0.2,0.5,0.8,0.8,1.3,0.6
	l0,0C45.9,30,46.1,29.5,45.9,28.9z"/>
</svg>
